<svg width="922" height="800" viewBox="0 0 922 800" fill="none" xmlns="http://www.w3.org/2000/svg">
<path d="M134.945 730.645C314.871 823.117 606.587 823.119 786.511 730.647C966.437 638.172 966.437 488.245 786.511 395.772C606.587 303.298 314.869 303.298 134.943 395.77C-44.9813 488.243 -44.9813 638.172 134.945 730.645Z" fill="#F5F5F5"/>
<path d="M771.934 482.938C772.15 470.575 785.086 438.259 798.195 422.432C811.304 406.605 831.678 395.22 845.919 400.371C859.183 405.169 857.432 422.649 841.04 433.967C824.648 445.285 800.058 459.433 792.59 479.361L777.222 503.704L771.934 482.938Z" fill="#CB5A90"/>
<path opacity="0.1" d="M771.934 482.938C772.15 470.575 785.086 438.259 798.195 422.432C811.304 406.605 831.678 395.22 845.919 400.371C859.183 405.169 857.432 422.649 841.04 433.967C824.648 445.285 800.058 459.433 792.59 479.361L777.222 503.704L771.934 482.938Z" fill="black"/>
<path d="M774.276 492.966C774.67 492.94 775.016 492.658 775.102 492.254C784.116 450.199 818.852 416.494 839.416 409.273C839.886 409.108 840.135 408.592 839.97 408.121C839.806 407.653 839.301 407.395 838.818 407.568C817.861 414.926 782.486 449.183 773.335 491.876C773.23 492.363 773.54 492.843 774.027 492.948C774.113 492.964 774.197 492.97 774.276 492.966Z" fill="white"/>
<path d="M780.098 520.104C782.205 513.19 790.893 501.872 804.786 492.639C820.155 482.425 839.456 477.942 844.031 469.864C849.525 460.159 841.426 450.757 825.794 452.421C810.16 454.082 782.363 474.89 777.42 506.858L780.098 520.104Z" fill="#CB5A90"/>
<path d="M777.208 512.75C777.553 512.728 777.867 512.511 777.996 512.167C791.567 476.241 819.37 464.033 832.175 462.596C832.67 462.541 833.026 462.093 832.973 461.598C832.917 461.1 832.489 460.744 831.974 460.8C817.814 462.388 790.158 474.858 776.305 511.526C776.128 511.991 776.365 512.515 776.83 512.69C776.958 512.74 777.085 512.756 777.208 512.75Z" fill="white"/>
<path d="M168.314 599.796L183.375 591.192C183.375 591.192 190.598 551.384 185.196 517.166C177.601 469.056 144.843 452.461 132.946 457.243C121.049 462.024 118.253 476.277 139.739 504.075C152.416 520.477 168.72 555.147 168.314 599.796Z" fill="#CB5A90"/>
<g opacity="0.1">
<path d="M168.314 599.796L183.375 591.192C183.375 591.192 190.598 551.384 185.196 517.166C177.601 469.056 144.843 452.461 132.946 457.243C121.049 462.024 118.253 476.277 139.739 504.075C152.416 520.477 168.72 555.147 168.314 599.796Z" fill="black"/>
</g>
<path d="M173.772 580.699C173.722 580.699 173.674 580.695 173.623 580.689C173.036 580.607 172.624 580.066 172.705 579.479C178.929 534.438 160.816 485.091 140.465 465.202C140.041 464.789 140.033 464.108 140.449 463.684C140.864 463.264 141.543 463.252 141.967 463.668C162.689 483.919 181.148 534.07 174.832 579.774C174.761 580.309 174.299 580.699 173.772 580.699Z" fill="white"/>
<path d="M126.532 623.943C124.152 625.31 119.247 622.321 117.369 621.062C114.153 618.903 111.547 615.849 109.816 612.392C107.802 608.369 107.295 604.059 107.925 599.61C108.252 597.302 108.898 595.053 109.541 592.813C110.174 590.614 110.805 588.413 111.437 586.214C112.06 584.044 112.691 581.799 112.404 579.561C111.827 575.05 107.822 571.888 104.18 569.162C100.155 566.147 95.9606 562.168 95.9845 556.735C96.0024 552.545 98.1733 548.651 100.77 545.362C103.367 542.073 106.449 539.165 108.797 535.693C110.486 533.194 111.805 530.257 111.531 527.252C111.36 525.386 110.586 523.627 109.692 521.979C107.774 518.442 105.243 515.202 103.92 511.404C102.597 507.603 102.786 502.877 105.75 500.159C108.184 497.927 111.801 497.616 115.097 497.833C118.145 498.034 121.124 499.409 123.79 500.894C132.414 505.689 137.337 515.903 146.488 519.592C150.018 521.014 153.884 521.327 157.563 522.3C161.242 523.273 164.993 525.151 166.698 528.554C170.057 535.263 163.823 543.533 166.185 550.655C168.274 556.958 174.399 559.37 177.837 565.049C179.341 567.534 179.688 570.405 179.445 573.301C179.033 578.199 178.317 581.795 175.967 587.243C174.025 591.746 168.314 599.803 168.314 599.803C168.175 599.946 126.896 623.734 126.532 623.943Z" fill="#CB5A90"/>
<path d="M150.981 610.914C150.967 610.914 150.951 610.914 150.951 610.914C150.342 610.888 149.885 610.389 149.906 609.796C151.681 567.164 131.594 520.097 116.987 506.423C116.555 506.019 116.531 505.339 116.937 504.905C117.343 504.473 118.022 504.451 118.456 504.855C133.357 518.804 153.852 566.651 152.055 609.883C152.03 610.462 151.552 610.914 150.981 610.914Z" fill="white"/>
<path d="M144.592 560.549C144.487 560.549 144.379 560.535 144.276 560.501C130.58 556.267 113.507 555.52 113.338 555.514C112.745 555.488 112.286 554.989 112.307 554.396C112.333 553.805 112.781 553.337 113.426 553.367C113.601 553.375 130.942 554.133 144.908 558.451C145.475 558.624 145.794 559.227 145.617 559.792C145.475 560.254 145.052 560.549 144.592 560.549Z" fill="white"/>
<path d="M131.769 608.127L348.928 733.495C353.686 736.243 361.403 736.243 366.16 733.495L777.31 496.069C782.07 493.324 782.07 488.868 777.31 486.12L560.148 360.751C555.389 358.003 547.674 358.003 542.917 360.751L131.769 598.178C127.009 600.926 127.009 605.381 131.769 608.127Z" fill="#37474F"/>
<path d="M249.136 666.379C255.746 670.196 266.462 670.196 273.072 666.379C279.682 662.563 279.682 656.378 273.072 652.562C266.462 648.746 255.746 648.746 249.136 652.562C242.526 656.377 242.526 662.565 249.136 666.379Z" fill="#263238"/>
<path d="M348.929 733.5L131.769 608.13C127.515 605.675 127.075 601.857 130.43 599.111C126.313 602.235 123.153 608.14 123.153 613.105V621.205C123.153 626.701 127.012 633.381 131.769 636.129L348.929 761.497C351.307 762.87 354.427 763.558 357.545 763.558V735.56C354.427 735.562 351.307 734.873 348.929 733.5Z" fill="#455A64"/>
<path d="M777.307 524.072C782.066 521.326 785.923 514.644 785.923 509.151V501.048C785.923 496.082 782.759 490.172 778.638 487.05C782.003 489.796 781.569 493.618 777.309 496.076L366.159 733.501C363.779 734.874 360.661 735.563 357.543 735.563V763.561C360.661 763.561 363.779 762.873 366.159 761.5L777.307 524.072Z" fill="#263238"/>
<path d="M384.709 707.531L179.724 589.179C176.868 587.53 176.868 584.857 179.724 583.21L516.841 388.455C519.698 386.806 524.326 386.806 527.18 388.453L732.237 506.787C735.093 508.437 735.093 511.109 732.237 512.757L395.047 707.531C392.195 709.18 387.565 709.18 384.709 707.531Z" fill="#FAFAFA"/>
<path d="M331.409 548.273L452.65 618.272L376.13 662.452C373.76 663.821 369.884 663.821 367.514 662.452L254.891 597.427C252.521 596.058 252.521 593.819 254.891 592.452L331.409 548.273Z" fill="#E6E6E6"/>
<path d="M452.641 618.266L438.352 561.469C438.012 560.12 437.278 558.89 436.201 558.009C436.193 558.003 436.186 557.995 436.178 557.989C435.087 557.074 433.758 556.493 432.337 556.379L331.404 548.265L452.641 618.266Z" fill="#E0E0E0"/>
<path d="M452.641 618.266L344.137 613.789C341.451 613.69 339.242 611.64 338.924 608.974L331.402 548.265L452.641 618.266Z" fill="#E0E0E0"/>
<path d="M452.642 618.269L344.138 613.792C341.452 613.693 339.243 611.643 338.925 608.977L331.403 548.268L344.795 607.922C345.033 608.997 345.969 609.793 347.083 609.892L452.642 618.269Z" fill="#FAFAFA"/>
<path d="M355.656 613.605L371.821 664.938L376.129 662.453L355.656 613.605Z" fill="#FAFAFA"/>
<path d="M250.581 594.937L254.891 592.448L339.492 604.269L250.581 594.937Z" fill="#FAFAFA"/>
<path d="M400.374 522.751L496.834 578.442C499.214 579.815 503.07 579.815 505.45 578.442L642.325 499.419C644.705 498.046 644.705 495.817 642.325 494.444L545.869 438.756C543.489 437.383 539.633 437.383 537.253 438.756L400.376 517.777C397.995 519.152 397.995 521.378 400.374 522.751Z" fill="#E6E6E6"/>
<path d="M477.071 515.407C474.701 511.358 474.413 507.317 476.208 503.279C478.004 499.244 481.901 495.497 487.89 492.039C494.731 488.091 501.846 485.582 509.234 484.515C516.623 483.451 523.987 483.71 531.329 485.295C538.664 486.881 545.755 489.645 552.596 493.597C558.986 497.284 563.341 501.084 565.661 504.99C567.984 508.896 568.27 512.709 566.525 516.426C564.776 520.145 561.107 523.617 555.517 526.845C549.576 530.277 543.722 532.185 537.957 532.575C532.191 532.961 527.212 531.948 523.018 529.527C520.97 528.343 519.808 527.069 519.534 525.7C519.259 524.331 519.745 523.026 520.992 521.786C517.747 522.045 514.553 521.828 511.407 521.138C508.262 520.445 505.34 519.323 502.648 517.767C498.052 515.059 495.654 512.174 495.459 509.119C495.258 506.063 497.453 503.21 502.047 500.557C507.738 497.272 513.855 495.7 520.395 495.845C526.936 495.989 533.152 497.762 539.044 501.162C541.589 502.633 543.646 504.326 545.22 506.244C546.796 508.162 547.656 509.969 547.805 511.67L529.833 522.047C528.382 522.885 527.598 523.627 527.473 524.274C527.348 524.922 527.861 525.577 529.007 526.242C530.955 527.364 533.59 527.589 536.909 526.91C540.23 526.234 543.911 524.727 547.954 522.393C552.449 519.797 555.293 517.031 556.492 514.09C557.69 511.149 557.374 508.232 555.557 505.337C553.733 502.44 550.624 499.723 546.231 497.184C538.192 492.544 529.817 490.059 521.106 489.727C512.394 489.396 503.87 491.637 495.533 496.452C490.638 499.276 487.492 502.258 486.097 505.4C484.698 508.542 484.909 511.621 486.732 514.631C488.554 517.646 491.712 520.447 496.205 523.042C498.653 524.455 501.311 525.645 504.182 526.61C507.052 527.575 509.736 528.174 512.233 528.403C512.631 528.46 512.906 528.532 513.055 528.617C513.204 528.705 513.204 528.878 513.055 529.137L510.436 532.814C510.235 533.043 510.112 533.174 510.062 533.202C509.814 533.345 509.414 533.375 508.862 533.288C505.818 532.913 502.61 532.157 499.242 531.017C495.871 529.879 492.737 528.474 489.84 526.803C483.697 523.255 479.443 519.456 477.071 515.407ZM518.559 517.136C521.677 517.411 524.337 516.913 526.534 515.644L536.945 509.633C536.145 507.961 534.4 506.349 531.701 504.791C528.307 502.832 524.66 501.823 520.767 501.763C516.871 501.707 513.23 502.656 509.835 504.618C506.94 506.29 505.528 507.939 505.603 509.567C505.677 511.195 507.237 512.89 510.283 514.647C512.679 516.034 515.439 516.864 518.559 517.136Z" fill="#FAFAFA"/>
<path d="M652.053 433.617C653.512 434.461 655.876 434.459 657.334 433.617C658.793 432.775 658.793 431.408 657.334 430.569C655.876 429.727 653.512 429.727 652.053 430.569C650.593 431.408 650.593 432.775 652.053 433.617Z" fill="#263238"/>
<path d="M660.492 457.555C663.41 459.24 668.139 459.24 671.056 457.555C673.973 455.87 673.973 453.14 671.056 451.456C668.139 449.771 663.41 449.771 660.492 451.456C657.575 453.14 657.575 455.87 660.492 457.555Z" fill="#263238"/>
<path d="M653.043 446.945C654.989 445.823 654.885 443.943 652.81 442.747L618.062 422.686C615.989 421.488 612.731 421.428 610.787 422.55C608.843 423.675 608.947 425.555 611.02 426.751L645.77 446.812C647.842 448.01 651.101 448.07 653.043 446.945Z" fill="#263238"/>
<path d="M202.59 193.906C202.59 189.982 205.346 185.208 208.744 183.246L523.586 1.47146C526.984 -0.490487 532.496 -0.490487 535.894 1.47146L542.831 5.47694C546.229 7.43889 548.985 12.2124 548.985 16.1363V257.468C548.985 261.376 546.216 266.173 542.831 268.127L227.99 449.9C224.605 451.854 219.065 451.854 215.681 449.9L208.744 445.897C205.36 443.943 202.59 439.145 202.59 435.237V193.906Z" fill="#CB5A90"/>
<path opacity="0.4" d="M204.388 187.844L221.856 197.919L547.18 10.0729C546.073 8.15075 544.529 6.46339 542.842 5.47247L535.884 1.48489C532.507 -0.494964 526.975 -0.494964 523.597 1.48489L208.755 183.246C207.038 184.233 205.494 185.922 204.388 187.844Z" fill="white"/>
<path opacity="0.1" d="M202.583 193.9V435.227C202.583 439.157 205.349 443.933 208.755 445.883L215.684 449.9C216.207 450.191 216.76 450.453 217.373 450.656C218.159 450.919 219.003 451.122 219.906 451.239C221.508 451.442 223.195 451.384 224.769 451.064C225.177 450.977 225.585 450.861 225.963 450.744C226.226 450.656 226.459 450.569 226.692 450.453C225.557 450.861 224.566 450.803 223.751 450.396C222.587 449.785 221.858 448.386 221.858 446.348V205.021C221.858 202.487 223.14 200.565 225.06 199.779L221.858 197.917L204.39 187.843C203.281 189.765 202.583 191.95 202.583 193.9Z" fill="black"/>
<path opacity="0.2" d="M221.856 197.919L367.661 252.392C378.053 256.264 389.73 252.422 395.785 243.133L419.199 207.263L548.343 9.40479L423.867 208.61L548.984 257.575C548.954 259.555 548.228 261.768 547.062 263.718L423.516 209.169L396.308 252.712C390.048 262.699 377.413 266.599 366.64 261.826L347.267 253.275L223.746 450.4C222.582 449.789 221.854 448.39 221.854 446.352V442.335L346.662 253.009L221.856 197.919Z" fill="black"/>
<path d="M257.924 141.582L236.41 129.172C236.404 129.168 236.392 129.162 236.384 129.158L236.187 129.044L236.167 129.076C226.616 123.684 213.509 124.498 199.014 132.865C169.823 149.72 146.152 190.712 146.152 224.424C146.152 241.252 152.056 253.077 161.587 258.611V258.619L161.631 258.642C161.631 258.642 161.637 258.644 161.637 258.648L181.213 269.825L185.889 262.003C190.718 260.893 195.744 259.17 201.049 256.105C230.24 239.25 253.91 198.258 253.916 164.546C253.916 159.54 253.242 155.133 252.259 151.044L257.924 141.582Z" fill="#E671A5"/>
<path d="M219.458 144.591C190.262 161.446 166.593 202.439 166.593 236.15C166.593 269.861 190.26 283.525 219.454 266.669C248.648 249.814 272.317 208.822 272.319 175.111C272.321 141.399 248.654 127.735 219.458 144.591Z" fill="#EF83B3"/>
<path d="M203.028 209.623C202.678 209.305 202.54 208.81 202.616 208.129C202.691 207.449 202.954 206.778 203.404 206.113L219.694 181.885C220.096 181.306 220.508 180.737 220.936 180.174C221.358 179.613 221.823 179.185 222.323 178.897L228.179 175.516C228.73 175.2 229.204 175.156 229.606 175.385C230.006 175.618 230.205 176.051 230.205 176.686V232.681C230.205 233.318 230.004 233.983 229.606 234.675C229.204 235.37 228.73 235.873 228.179 236.191L222.098 239.701C221.547 240.02 221.071 240.063 220.669 239.833C220.269 239.602 220.07 239.166 220.07 238.531V195.711L209.411 211.488C208.959 212.15 208.472 212.592 207.949 212.807C207.421 213.024 206.958 212.99 206.56 212.7L203.028 209.623Z" fill="white"/>
</svg>
