<svg width="1138" height="681" viewBox="0 0 1138 681" fill="none" xmlns="http://www.w3.org/2000/svg">
<path d="M54.816 675.238C-39.4488 533.97 14.352 391.93 122.963 311.318C233.372 229.372 108.729 59.8368 328.479 -9.14998C442.159 -44.8384 542.128 52.4904 653.554 56.7192C753.399 60.5088 856.686 -25.3236 958.06 14.438C1025.85 37.3264 1093.62 101.561 1088.57 178.363C1085.96 218.05 1062.83 265.031 1086.78 295.18C1187.83 422.426 1177.41 533.725 1137.81 673.456C1137.82 673.452 54.816 675.238 54.816 675.238Z" fill="#FFDEEE"/>
<path d="M1145.8 680.442H48.6895C46.0383 680.442 43.8887 678.292 43.8887 675.641C43.8887 672.99 46.0383 670.84 48.6895 670.84H1145.8C1148.45 670.84 1150.6 672.99 1150.6 675.641C1150.6 678.292 1148.45 680.442 1145.8 680.442Z" fill="#DEDEDE"/>
<path d="M1144.42 510.051C1144.42 510.051 1153.16 519.572 1148.25 541.467C1143.24 563.778 1148.43 577.25 1148.43 577.25L1141.29 587.053C1141.29 587.053 1134.46 566.312 1139.34 548.576C1145.47 526.381 1144.42 510.051 1144.42 510.051Z" fill="#CB5A90"/>
<path d="M1129.96 535.629C1129.96 535.629 1123.16 543.263 1123.48 567.478C1123.74 587.212 1130.36 595.983 1130.45 608.093L1139.01 592.852C1137.76 584.546 1131.25 580.436 1130.15 562.552C1129.11 545.81 1129.96 535.629 1129.96 535.629Z" fill="#CB5A90"/>
<path d="M1073.39 622.585C1073.39 622.585 1072 632.743 1085.76 652.644C1096.98 668.885 1106.89 669.027 1109.68 672.724L1111.54 662.723C1104.87 656.888 1099.44 659.083 1088.55 644.851C1078.35 631.492 1073.39 622.585 1073.39 622.585Z" fill="#CB5A90"/>
<path d="M1114.36 554.532C1114.36 554.532 1112.63 572.096 1113.83 582.746C1115.5 597.89 1123.19 604.371 1126 619.717L1120.24 631.51C1120.24 631.51 1109.28 617.324 1107.97 598.556C1105.77 567.063 1114.36 554.532 1114.36 554.532Z" fill="#CB5A90"/>
<path d="M1088.07 568.845C1091.95 577.954 1094.49 587.58 1095.58 597.422C1098.7 627.264 1118.25 644.638 1118.25 644.638L1114.54 652.776C1114.54 652.776 1092.19 641.956 1090.28 616.818C1088.29 590.251 1088.07 568.845 1088.07 568.845Z" fill="#CB5A90"/>
<path d="M1138.88 595.053C1138.88 595.053 1145.14 591.013 1174.4 587.919C1193.15 585.944 1186.2 580.305 1204.61 581.448C1191.81 585.689 1189.61 596.287 1172.27 599.138C1158.41 601.409 1144.75 604.763 1131.4 609.168L1138.88 595.053Z" fill="#CB5A90"/>
<path d="M1198.33 600.507C1198.33 600.507 1190.49 617.183 1164.87 621.335C1149.11 623.929 1133.88 629.098 1119.79 636.634L1124.4 622.143C1124.4 622.143 1133.05 612.098 1160.1 610.341C1178.69 609.129 1198.33 600.507 1198.33 600.507Z" fill="#CB5A90"/>
<path d="M1188.97 628.004C1188.97 628.004 1181.13 644.68 1155.51 648.831C1139.74 651.425 1124.51 656.595 1110.43 664.129L1115.03 649.639C1115.03 649.639 1123.68 639.595 1150.74 637.838C1169.33 636.625 1188.97 628.004 1188.97 628.004Z" fill="#CB5A90"/>
<path d="M1111.15 672.688L1108.29 672.217C1111.2 654.617 1129.06 595.445 1160.86 560.529L1163 562.478C1131.64 596.913 1114.02 655.312 1111.15 672.688Z" fill="#CB5A90"/>
<path d="M70.3203 412.213C70.3203 412.213 60.2575 422.261 64.6019 446.571C69.0343 471.343 62.6875 485.905 62.6875 485.905L70.0627 497.029C70.0627 497.029 78.5663 474.553 74.0579 454.815C68.3839 430.117 70.3203 412.213 70.3203 412.213Z" fill="#CB5A90"/>
<path d="M39.4771 410.556C39.4771 410.556 34.841 419.958 42.7134 437.176C50.7706 454.717 49.4858 466.758 49.4858 466.758L55.7499 475.603C55.7499 475.603 57.7734 455.279 50.7022 441.482C41.8758 424.223 39.4771 410.556 39.4771 410.556Z" fill="#CB5A90"/>
<path d="M84.9927 441.031C84.9927 441.031 92.1027 449.751 90.5867 476.362C89.3551 498.047 81.6467 507.372 80.9679 520.683L72.2871 503.513C74.0615 494.441 81.4247 490.236 83.4947 470.625C85.4383 452.267 84.9927 441.031 84.9927 441.031Z" fill="#CB5A90"/>
<path d="M143.014 539.363C143.014 539.363 144.05 550.599 127.961 571.818C114.845 589.136 103.94 588.816 100.695 592.746L99.1367 581.661C106.746 575.565 112.614 578.24 125.267 563.116C137.124 548.917 143.014 539.363 143.014 539.363Z" fill="#CB5A90"/>
<path d="M101.234 462.566C101.234 462.566 102.29 481.961 100.466 493.614C97.9031 510.184 89.1359 516.94 85.3027 533.678L91.0719 546.922C91.0719 546.922 103.802 531.851 106.146 511.279C110.081 476.758 101.234 462.566 101.234 462.566Z" fill="#CB5A90"/>
<path d="M129.456 479.569C124.747 489.396 121.499 499.859 119.819 510.627C114.959 543.291 91.5273 562.409 91.5273 562.409L96.3149 570.578C96.3149 570.578 121.408 559.756 124.719 532.209C128.185 503.093 129.456 479.569 129.456 479.569Z" fill="#CB5A90"/>
<path d="M72.3269 505.941C72.3269 505.941 65.6365 501.197 33.6153 496.39C13.0933 493.315 21.0097 487.45 0.712891 487.82C14.5837 493.099 16.4917 504.858 35.4133 508.826C50.5481 511.99 65.4121 516.334 79.8689 521.82L72.3269 505.941Z" fill="#CB5A90"/>
<path d="M6.69531 509.079C6.69531 509.079 14.5117 527.792 42.4861 533.588C59.6925 537.198 76.1885 543.614 91.3129 552.578L86.9481 536.422C86.9481 536.422 77.9217 524.963 48.2561 521.729C27.8745 519.503 6.69531 509.079 6.69531 509.079Z" fill="#CB5A90"/>
<path d="M15.6699 539.762C15.6699 539.762 23.4867 558.475 51.4607 564.272C68.6675 567.882 85.1631 574.297 100.288 583.261L95.9227 567.106C95.9227 567.106 86.8963 555.646 57.2307 552.413C36.8495 550.186 15.6699 539.762 15.6699 539.762Z" fill="#CB5A90"/>
<path d="M1.52148 453.403C1.52148 453.403 8.02908 463.803 25.8451 466.802C43.9139 469.834 55.7311 477.252 55.7311 477.252L52.2591 470.697C52.2591 470.697 46.5547 463.453 27.8039 461.403C14.9115 459.988 1.52148 453.403 1.52148 453.403Z" fill="#CB5A90"/>
<path d="M60.778 487.807C60.778 487.807 47.6664 482.622 27.3344 478.755C14.5148 476.277 0 464.031 0 464.031C0 464.031 7.7636 485.595 27.2624 488.128C49.6228 491.025 70.0064 499.919 70.0064 499.919L60.778 487.807Z" fill="#CB5A90"/>
<path d="M52.9853 473.139C52.9853 473.139 46.7533 452.383 28.9153 443.569C18.3885 438.256 8.82288 431.222 0.613281 422.757C0.613281 422.757 5.88928 443.855 23.1325 450.18C39.0353 456.061 47.2857 469.987 47.2857 469.987L52.9853 473.139Z" fill="#CB5A90"/>
<path d="M99.0839 592.636L102.244 592.255C99.8959 572.763 83.1087 506.844 49.8167 466.924L47.3711 468.964C80.1991 508.333 96.7587 573.392 99.0839 592.636Z" fill="#CB5A90"/>
<path d="M687.773 592.815L670.891 671.222C670.441 673.314 669.69 674.567 668.886 674.567C667.398 674.567 666.262 670.383 666.495 665.759L670.17 592.815H687.773Z" fill="#666666"/>
<path d="M1117.66 592.815L1134.54 671.222C1134.99 673.314 1135.75 674.567 1136.55 674.567C1138.04 674.567 1139.17 670.383 1138.94 665.759L1135.26 592.815H1117.66Z" fill="#666666"/>
<path d="M986.783 592.815L1003.66 671.222C1004.12 673.314 1004.87 674.567 1005.67 674.567C1007.16 674.567 1008.29 670.383 1008.06 665.759L1004.39 592.815H986.783Z" fill="#666666"/>
<path d="M863.973 606.945H683.891C673.447 606.945 664.98 598.478 664.98 588.033V491.899C664.98 483.778 671.564 477.194 679.685 477.194H863.973L863.973 606.945Z" fill="#B3B4B6"/>
<path d="M901.726 606.945H721.645C711.201 606.945 702.734 598.478 702.734 588.033V491.899C702.734 483.778 709.318 477.194 717.439 477.194H901.727L901.726 606.945Z" fill="#666666"/>
<path d="M1114.07 510.008H792.098V442.404C792.098 434.609 798.416 428.289 806.212 428.289H1114.07V510.008Z" fill="#B3B4B6"/>
<path d="M1135.97 507.787H719.642C710.12 507.787 702.4 515.507 702.4 525.029V544.914H1135.97L1135.97 507.787Z" fill="#D5D5D5"/>
<path d="M702.4 607.04H1135.97V540.6H702.4V607.04Z" fill="#B3B4B6"/>
<path d="M1135.93 510.008H1092.21V428.289H1121.82C1129.61 428.289 1135.93 434.609 1135.93 442.404V510.008Z" fill="#666666"/>
<path d="M701.846 654.291L687.822 658.857L681.146 646.539C681.723 646.05 682.094 637.541 682.237 631.074L705.476 632.712C704.779 639.275 703.444 647.886 701.846 654.291Z" fill="#F37A50"/>
<path d="M677.172 663.461C677.172 663.461 671.686 655.496 665.4 655.392C665.4 655.392 653.65 656.855 649.843 662.091C648.647 663.736 649.368 667.027 650.025 669.121C650.434 670.429 651.657 671.796 655.216 672.661C660.474 673.937 667.485 674.466 680.058 670.295C695.141 665.292 697.7 666.767 703.251 664.561C709.004 662.274 706.635 655.213 704.564 648.322C704.564 648.322 700.858 657.173 677.172 663.461Z" fill="#272627"/>
<path d="M680.678 645.321C680.678 645.321 674.104 649.928 665.284 652.583C660.349 654.067 647.164 657.549 649.909 666.312C650.318 667.62 651.542 668.987 655.101 669.851C660.358 671.127 667.369 671.656 679.943 667.486C695.026 662.483 697.585 663.958 703.136 661.751C708.888 659.465 705.63 651.489 703.56 644.597C703.534 646.383 703.022 651.099 692.636 655.987C689.536 657.446 691.2 643.233 680.678 645.321Z" fill="#343434"/>
<path d="M757.498 652.654L743.83 658.197L736.305 646.378C736.845 645.852 736.616 637.337 736.305 630.876H759.6C759.368 637.471 758.641 646.154 757.498 652.654Z" fill="#F37A50"/>
<path d="M770.509 495.299C739.034 503.246 695.156 526.907 691.005 531.9C682.432 542.214 681.743 575.874 681.359 635.576H706.877C714.073 588.476 723.3 567.594 723.623 548.639C723.623 548.639 748.173 548.698 783.997 532.054C801.657 523.849 820.002 514.427 813.472 498.413C808.269 485.656 800.521 487.722 770.509 495.299Z" fill="#291F23"/>
<path d="M805.362 492.407C779.071 496.91 745.782 529.559 741.631 534.553C733.057 544.867 736.689 578.064 736.306 637.768H760.395C762.834 606.688 774.867 571.252 773.32 548.655C773.32 548.655 799.195 544.818 835.019 528.173C852.678 519.969 870.609 520.783 866.33 500.27C863.516 486.781 835.872 487.183 805.362 492.407Z" fill="#291F21"/>
<path d="M727.404 385.194C734.053 378.485 729.692 371.606 729.692 371.606C733.341 370.823 752.591 399.985 760.892 418.516C775.371 403.923 800.883 384.216 807.782 383.067C807.782 383.067 817.089 380.565 820.434 391.818C823.418 401.86 811.777 408.977 811.777 408.977C811.777 408.977 761.979 444.135 754.614 441.01C743.154 436.147 732.781 394.303 727.404 385.194Z" fill="#F37A50"/>
<path d="M717.007 384.363C721.071 384.612 726.096 382.603 727.662 386.246L735.682 382.337L736.167 377.5C729.275 366.458 712.478 363.325 710.814 363.178C706.493 362.799 704.487 362.353 704.15 362.93C703.812 363.508 702.754 367.356 709.023 368.109C716.892 369.053 711.669 375.344 695.706 369.356C691.709 367.856 684.187 369.802 686.908 372.723C689.905 375.942 698.518 383.236 717.007 384.363Z" fill="#F37A50"/>
<path d="M805.389 391.285C792.995 389.565 773.287 384.242 781.6 365.145C789.913 346.05 791.143 353.357 782.627 334.095C774.111 314.834 785.093 295.945 799.608 297.069C814.122 298.194 819.948 308.516 836.107 302.176C852.267 295.835 869.503 308.561 866.069 323.479C862.635 338.398 861.325 345.509 868.811 351.784C876.297 358.059 904.576 360.543 897.304 380.903C890.031 401.261 884.719 401.229 890.52 409.65C896.321 418.073 889.666 430.463 873.961 432.284C858.255 434.103 843.082 431.227 833.799 415.224C824.515 399.222 805.389 391.285 805.389 391.285Z" fill="#272627"/>
<path d="M778.871 398.519C789.373 392.158 806.757 374.353 819.972 379.629C833.187 384.903 828.701 400.887 822.378 407.493C816.054 414.1 796.414 429.222 796.414 429.222L778.871 398.519Z" fill="#FDA4CC"/>
<path d="M864.733 496.591C858.85 466.242 860.289 466.308 857.845 452.026C851.806 416.727 882.896 388.39 837.451 374.401L817.324 378.859C797.987 388.407 794.206 405.574 792.301 417.291C788.674 439.594 791.843 472.886 791.843 472.886L784.236 491.898C784.236 491.898 789.516 497.194 814.533 501.919C839.55 506.645 864.733 496.591 864.733 496.591Z" fill="#FDA4CC"/>
<path d="M869.342 406.441C874.17 424.318 874.688 483.434 870.593 488.733L849.86 477.236C849.86 477.236 840.259 415.691 839.161 405.399C837.218 387.581 861.515 377.238 869.342 406.441Z" fill="#F37A50"/>
<path d="M838.782 434.639C836.857 421.052 834.291 395.079 845.693 386.567C857.096 378.057 868.012 388.428 870.34 397.272C872.669 406.117 875.3 430.763 875.3 430.763L838.782 434.639Z" fill="#FDA4CC"/>
<path d="M845.432 344.011C845.003 360.058 834.439 372.793 821.836 372.457C809.233 372.12 799.364 358.838 799.793 342.792C800.222 326.747 810.786 314.011 823.388 314.347C835.991 314.684 845.86 327.965 845.432 344.011Z" fill="#F37A50"/>
<path d="M841.322 353.284L823.999 369.855C823.999 369.855 824.093 379.039 823.814 382.084C823.239 388.369 830.765 389.47 835.89 384.551C841.015 379.631 841.479 374.401 841.479 374.401L841.322 353.284Z" fill="#F37A50"/>
<path d="M797.189 337.25C802.957 336.54 815.022 332.961 818.376 326.709C823.845 336.811 839.577 344.201 851.813 346.639C849.926 335.487 845.544 315.165 823.938 310.905C806.965 307.557 797.189 337.25 797.189 337.25Z" fill="#272627"/>
<path d="M805.997 346.441C805.693 347.613 804.496 348.316 803.324 348.013C802.152 347.708 801.449 346.512 801.752 345.34C802.056 344.167 803.253 343.463 804.425 343.768C805.597 344.072 806.301 345.269 805.997 346.441Z" fill="black"/>
<path d="M823.991 346.211C823.663 347.48 822.367 348.242 821.098 347.913C819.829 347.584 819.068 346.288 819.397 345.02C819.726 343.751 821.021 342.989 822.29 343.318C823.559 343.647 824.32 344.943 823.991 346.211Z" fill="black"/>
<path d="M826.151 343.746C825.976 343.701 825.815 343.597 825.698 343.441C824.004 341.176 820.756 341.351 820.723 341.354C820.269 341.383 819.877 341.038 819.847 340.584C819.818 340.129 820.16 339.738 820.614 339.707C820.783 339.696 824.781 339.459 827.02 342.452C827.293 342.818 827.219 343.335 826.854 343.608C826.645 343.763 826.386 343.807 826.151 343.746Z" fill="#272627"/>
<path d="M800.929 343.496C800.843 343.474 800.759 343.438 800.681 343.386C800.301 343.135 800.196 342.624 800.447 342.243C802.396 339.288 805.645 339.656 805.783 339.673C806.234 339.73 806.556 340.142 806.499 340.594C806.443 341.045 806.033 341.366 805.583 341.311C805.476 341.3 803.195 341.074 801.825 343.152C801.625 343.454 801.261 343.583 800.929 343.496Z" fill="#272627"/>
<path d="M808.63 349.99C807.709 351.449 806.94 352.915 805.967 353.861C805.638 354.18 805.623 354.709 805.926 355.052C807.173 356.471 810.104 357.236 811.875 357.583C812.133 357.633 812.263 357.282 812.033 357.152C810.089 356.061 809.16 355.151 808.741 354.631C808.533 354.373 808.465 354.032 808.55 353.712C808.746 352.977 809.129 351.479 809.345 350.262C809.419 349.842 808.858 349.629 808.63 349.99Z" fill="#DE623C"/>
<path d="M839.682 345.33C837.246 348.213 837.185 352.167 839.545 354.16C841.905 356.153 845.793 355.431 848.228 352.546C850.664 349.663 850.725 345.709 848.365 343.716C846.005 341.723 842.117 342.445 839.682 345.33Z" fill="#F37A50"/>
<path d="M842.975 352.711C842.855 352.68 842.74 352.621 842.64 352.534C841.206 351.281 840.747 349.631 841.413 348.118C842.094 346.569 843.756 345.575 845.366 345.754C845.82 345.805 846.146 346.212 846.095 346.665C846.045 347.118 845.637 347.445 845.184 347.394C844.302 347.296 843.309 347.905 842.924 348.783C842.554 349.625 842.838 350.516 843.726 351.29C844.069 351.591 844.104 352.113 843.804 352.456C843.592 352.698 843.268 352.787 842.975 352.711Z" fill="#DE623C"/>
<path d="M851.42 475.551C857.406 473.654 871.277 486.65 870.793 488.791C852.982 521.464 807.345 534.881 807.345 534.881L799.369 528.857C799.369 528.857 830.102 502.978 851.42 475.551Z" fill="#F37A50"/>
<path d="M807.346 534.881C806.458 543.405 793.763 554.512 782.655 555.306C771.547 556.099 775.118 545.388 779.482 542.611C783.845 539.835 790.13 537.07 788.574 534.881C787.019 532.694 784.237 533.27 782.258 530.71C780.492 528.425 789.142 523.917 799.37 528.857C802.815 531.459 807.346 534.881 807.346 534.881Z" fill="#F37A50"/>
<path d="M816.405 362.561C816.728 364.084 815.64 365.603 813.976 365.955C812.312 366.307 810.702 365.357 810.381 363.834C810.059 362.311 811.147 360.792 812.81 360.44C814.474 360.089 816.084 361.038 816.405 362.561Z" fill="white"/>
<path d="M733.531 663.539C733.531 663.539 727.498 655.981 721.22 656.318C721.22 656.318 709.602 658.604 706.173 664.096C705.097 665.821 706.048 669.052 706.85 671.096C707.35 672.371 708.666 673.649 712.277 674.26C717.612 675.163 724.643 675.197 736.891 670.153C751.585 664.101 754.242 665.392 759.623 662.801C765.2 660.115 762.341 653.239 759.79 646.51C759.79 646.511 756.715 655.6 733.531 663.539Z" fill="#272627"/>
<path d="M735.751 645.197C735.751 645.197 729.518 650.255 720.907 653.523C716.089 655.351 703.181 659.753 706.536 668.301C707.037 669.576 708.353 670.855 711.964 671.466C717.298 672.369 724.329 672.403 736.577 667.358C751.271 661.306 753.928 662.597 759.309 660.005C764.887 657.32 761.077 649.595 758.526 642.864C758.625 644.648 758.447 649.389 748.431 654.995C745.441 656.669 746.101 642.375 735.751 645.197Z" fill="#343434"/>
<path d="M1112.99 605.476H980.667C971.763 605.476 964.545 598.258 964.545 589.353V488.261C964.545 481.338 970.157 475.725 977.081 475.725H1116.58C1123.5 475.725 1129.11 481.338 1129.11 488.261V589.353C1129.11 598.258 1121.89 605.476 1112.99 605.476Z" fill="#B3B3B4"/>
<path d="M1135.97 607.04H1018.3C1010.28 607.04 1003.77 600.531 1003.77 592.503V487.029C1003.77 480.786 1008.83 475.724 1015.07 475.724H1135.97V607.04Z" fill="#D4D4D4"/>
<path d="M534.616 676.598C537.668 676.598 540.141 674.124 540.141 671.073V573.167H529.09V671.073C529.09 674.125 531.564 676.598 534.616 676.598Z" fill="#666666"/>
<path d="M495.84 676.598C498.892 676.598 501.366 674.124 501.366 671.073V573.167H490.314V671.073C490.314 674.125 492.788 676.598 495.84 676.598Z" fill="#666666"/>
<path d="M444.961 676.598C448.013 676.598 450.487 674.124 450.487 671.073V573.167H439.436V671.073C439.436 674.125 441.91 676.598 444.961 676.598Z" fill="#666666"/>
<path d="M406.186 676.598C409.238 676.598 411.712 674.124 411.712 671.073V573.167H400.66V671.073C400.66 674.125 403.134 676.598 406.186 676.598Z" fill="#666666"/>
<path d="M397.017 548.914H454.131V411.954H397.017V548.914Z" fill="#B3B4B6"/>
<path d="M575.91 561.913H410.213V522.146H552.764C565.547 522.146 575.909 532.509 575.909 545.291L575.91 561.913Z" fill="#D5D5D5"/>
<path d="M410.214 425.151V544.374C410.214 545.699 411.288 546.774 412.614 546.774H562.857C570.145 546.774 576.054 552.683 576.054 559.971C576.054 567.259 570.145 573.167 562.857 573.167H410.214H397.017C389.729 573.167 383.82 567.259 383.82 559.971V546.774V425.151C383.82 417.862 389.729 411.954 397.017 411.954C404.305 411.954 410.214 417.863 410.214 425.151Z" fill="#666666"/>
<path d="M335.023 616.484L351.905 670.312C352.355 671.748 353.107 672.608 353.91 672.608C355.398 672.608 356.534 669.735 356.301 666.562L352.625 616.484H335.023Z" fill="#666666"/>
<path d="M179.324 616.484L162.442 670.312C161.992 671.748 161.24 672.608 160.437 672.608C158.949 672.608 157.813 669.735 158.046 666.562L161.722 616.484H179.324Z" fill="#666666"/>
<path d="M99.0232 616.484L82.1416 670.312C81.6908 671.748 80.94 672.608 80.1368 672.608C78.6484 672.608 77.5124 669.735 77.7452 666.562L81.4204 616.484H99.0232Z" fill="#666666"/>
<path d="M195.77 618.464H347.329C357.774 618.464 366.24 609.998 366.24 599.553V503.419C366.24 495.298 359.657 488.713 351.536 488.713H195.77V618.464Z" fill="#B3B4B6"/>
<path d="M158.016 618.464H309.575C320.019 618.464 328.486 609.998 328.486 599.553V503.419C328.486 495.298 321.902 488.713 313.781 488.713H158.016V618.464Z" fill="#666666"/>
<path d="M125.035 521.529H267.645V454.357C267.645 446.323 261.132 439.81 253.098 439.81H125.035V521.529Z" fill="#B3B4B6"/>
<path d="M111.504 519.307H311.578C321.101 519.307 328.82 527.027 328.82 536.549V556.435H111.504V519.307Z" fill="#D5D5D5"/>
<path d="M328.82 552.121H111.504V618.56H328.82V552.121Z" fill="#B3B4B6"/>
<path d="M81.3145 521.529H125.036V439.81H95.4281C87.6333 439.81 81.3145 446.129 81.3145 453.923V521.529Z" fill="#666666"/>
<path d="M366.752 600.256L375.049 611.861C375.049 611.861 382.459 621.306 391.293 616.872C400.127 612.437 396.211 598.249 396.211 598.249L386.062 584.886L366.752 600.256Z" fill="#F37A50"/>
<path d="M395.867 596.712C395.867 596.712 404.788 596.628 414.478 593.326C419.899 591.479 434.071 586.105 437.253 595.802C437.728 597.249 437.506 599.275 434.846 602.358C430.918 606.91 424.921 611.919 410.858 616.276C393.987 621.502 392.627 624.49 386.183 626.083C379.503 627.734 377.293 618.418 374.711 610.848C375.889 612.445 379.4 616.38 391.949 614.086C395.695 613.4 385.003 601.626 395.867 596.712Z" fill="#272627"/>
<path d="M296.484 640.154V648.025C296.484 648.025 297.02 660.018 306.785 661.549C316.55 663.079 321.616 649.259 321.616 649.259L321.258 636.863L296.484 640.154Z" fill="#F37A50"/>
<path d="M267.83 452.892C263.19 451.813 249.856 466.73 250.349 468.32C262.641 485.064 302.558 494.462 302.558 494.462L309.058 490.219C309.058 490.219 285.58 472.372 267.83 452.892Z" fill="#EF83B3"/>
<path d="M233.059 405.789C234.462 419.62 246.058 465.702 250.35 468.32L267.83 452.892C267.83 452.892 255.934 404.487 253.947 396.974C250.537 383.958 230.727 383.213 233.059 405.789Z" fill="#EF83B3"/>
<path d="M277.793 329.393C279.066 312.064 274.055 296.754 260.238 288.958C246.233 281.055 228.688 288.806 228.688 288.806C228.687 288.805 213.837 283.523 200.379 298.347C186.921 313.173 197.101 326.219 191.595 337.031C188.335 343.433 171.755 344.754 176.038 365.61C177.273 371.625 184.507 375.672 190.634 376.075C201.399 376.783 211.425 372.621 215.788 376.783C230.168 390.496 262.035 385.537 266.495 372.992C267.878 369.103 296.544 376.63 293.684 350.137C292.234 336.713 276.655 344.878 277.793 329.393Z" fill="#272627"/>
<path d="M243.703 363.813C243.703 363.813 241.842 380.852 241.248 387.138L218.307 387.813C225.316 376.962 222.155 346.025 222.155 346.025L243.703 363.813Z" fill="#F37A50"/>
<path d="M210.196 342.023C214.966 361.947 231.52 375.061 247.168 371.314C262.816 367.568 271.635 348.378 266.864 328.455C262.093 308.53 245.54 295.416 229.892 299.163C214.243 302.909 205.425 322.099 210.196 342.023Z" fill="#F37A50"/>
<path d="M259.53 333.688C260.219 335.071 261.899 335.634 263.283 334.945C264.666 334.256 265.229 332.576 264.54 331.192C263.851 329.809 262.171 329.246 260.788 329.935C259.404 330.624 258.841 332.304 259.53 333.688Z" fill="black"/>
<path d="M237.553 339.11C238.299 340.608 240.117 341.217 241.614 340.471C243.112 339.725 243.721 337.906 242.975 336.409C242.229 334.912 240.411 334.302 238.913 335.048C237.416 335.794 236.807 337.612 237.553 339.11Z" fill="black"/>
<path d="M234.202 336.601C234.409 336.498 234.583 336.327 234.688 336.102C236.206 332.827 240.307 332.188 240.348 332.182C240.922 332.098 241.322 331.564 241.239 330.99C241.156 330.416 240.626 330.016 240.051 330.097C239.837 330.127 234.781 330.888 232.775 335.216C232.531 335.744 232.761 336.37 233.289 336.615C233.591 336.754 233.926 336.739 234.202 336.601Z" fill="#272627"/>
<path d="M265.634 329.632C265.735 329.582 265.829 329.515 265.913 329.429C266.322 329.015 266.318 328.349 265.905 327.939C262.691 324.765 258.731 326.081 258.564 326.139C258.015 326.328 257.721 326.929 257.911 327.478C258.101 328.027 258.697 328.319 259.246 328.132C259.376 328.089 262.164 327.206 264.424 329.438C264.753 329.763 265.242 329.828 265.634 329.632Z" fill="#272627"/>
<path d="M257.731 339.773C259.266 341.353 260.613 342.981 262.079 343.905C262.573 344.216 262.731 344.873 262.444 345.382C261.26 347.482 257.803 349.211 255.683 350.111C255.374 350.243 255.12 349.837 255.373 349.616C257.512 347.739 258.431 346.358 258.818 345.599C259.009 345.222 259.004 344.778 258.813 344.401C258.374 343.534 257.501 341.765 256.91 340.303C256.706 339.797 257.351 339.383 257.731 339.773Z" fill="#DE623C"/>
<path d="M217.727 342.15C221.529 345.109 222.649 350.029 220.228 353.141C217.807 356.252 212.762 356.377 208.959 353.419C205.157 350.46 204.037 345.539 206.458 342.427C208.879 339.316 213.924 339.191 217.727 342.15Z" fill="#F37A50"/>
<path d="M215.561 352.237C215.702 352.166 215.831 352.062 215.932 351.928C217.392 349.985 217.53 347.802 216.3 346.089C215.04 344.335 212.701 343.532 210.739 344.18C210.186 344.363 209.886 344.958 210.069 345.511C210.251 346.063 210.847 346.363 211.4 346.18C212.475 345.825 213.876 346.325 214.588 347.318C215.273 348.272 215.152 349.459 214.248 350.661C213.899 351.127 213.992 351.787 214.457 352.136C214.787 352.384 215.215 352.409 215.561 352.237Z" fill="#DE623C"/>
<path d="M250.248 361.144C242.632 361.144 239.451 356.414 239.287 356.162C238.938 355.623 239.091 354.903 239.629 354.553C240.166 354.205 240.884 354.356 241.234 354.89C241.414 355.159 245.567 361.14 256.424 357.802C257.038 357.613 257.688 357.958 257.877 358.571C258.066 359.185 257.721 359.836 257.107 360.025C254.505 360.825 252.226 361.144 250.248 361.144Z" fill="#DE623C"/>
<path d="M209.81 340.261C228.488 337.76 254.622 318.731 256.766 308.964C253.153 297.233 233.904 291.337 223.035 296.771C212.166 302.206 201.898 325.498 209.81 340.261Z" fill="#272627"/>
<path d="M225.922 526.873L320.69 522.825C320.69 522.825 325.365 499.171 321.849 489.794C318.332 480.417 231.26 482.35 231.26 482.35L225.922 526.873Z" fill="#343434"/>
<path d="M198.05 466.142C195.482 472.076 185.474 489.739 186.44 504.058C187.438 518.836 197.865 531.703 215.512 531.422C215.512 531.422 248.774 512.515 241.574 473.785C241.574 473.785 224.162 466.984 198.05 466.142Z" fill="#343434"/>
<path d="M212.881 534.796L296.359 542.671C296.359 542.671 324.994 530.587 324.831 520.325C324.669 510.062 240.557 481.98 240.557 481.98C191.226 467.594 174.781 528.822 212.881 534.796Z" fill="#343434"/>
<path d="M324.832 520.324L323.158 638.073C323.158 638.073 302.319 646.855 295.016 638.141C291.57 598.176 275.159 562.773 293.48 538.411C318.018 505.779 324.832 520.324 324.832 520.324Z" fill="#343434"/>
<path d="M321.648 489.518L391.115 584.918C391.115 584.918 375.61 605.64 364.784 603.214C346.106 579.579 308.31 551.865 308.068 522.121C307.745 482.284 321.648 489.518 321.648 489.518Z" fill="#343434"/>
<path d="M251.445 511.356C245.743 510.03 237.995 509.44 238.834 506.519C239.673 503.599 242.858 503.169 244.009 499.693C245.03 496.611 234.255 495.052 225.229 503.967L224.336 502.921L217.809 512.068L218.965 512.941C223.394 521.578 240.821 529.385 252.827 526.101C264.982 522.775 257.147 512.68 251.445 511.356Z" fill="#F37A50"/>
<path d="M221.291 379.81L241.609 383.501C249.357 398.018 257.91 412.507 257.93 421.244C257.956 432.747 242.173 480.39 242.173 480.39C221.405 483.126 204.489 480.499 191.664 472.178C201.679 443.853 184.578 408.881 203.132 389.77C207.762 385.001 215.17 382.886 221.291 379.81Z" fill="#272627"/>
<path d="M313.097 490.728C312.874 490.438 312.683 490.309 312.62 489.988C312.62 489.988 312.46 490.02 312.492 490.179C310.27 492.443 307.032 492.908 305.534 491.203C305.311 490.913 305.088 490.624 304.865 490.335C303.034 491.19 301.016 491.084 299.965 489.958C299.55 489.54 299.265 488.93 299.14 488.288C297.341 489.305 295.322 489.198 293.888 487.813C292.229 486.138 292.5 483.257 294.464 481.377C296.427 479.496 299.216 479.285 300.842 480.799C301.256 481.218 301.511 481.667 301.636 482.308C303.791 480.556 306.579 480.346 308.014 481.731C308.237 482.021 308.46 482.31 308.683 482.6C310.513 481.744 312.531 481.85 313.583 482.976C313.998 483.395 314.283 484.004 314.377 484.485C315.855 483.531 317.873 483.638 318.925 484.764C320.36 486.149 319.996 488.55 318.482 490.177C316.969 491.804 314.501 491.951 313.097 490.728Z" fill="#F37A50"/>
<path d="M197.006 397.167C187.215 412.422 154.492 445.541 157.488 466.924C159.586 481.895 216.508 514.546 216.508 514.546L224.878 502.116L188.105 459.519C188.105 459.519 220.287 414.213 224.234 405.335C231.138 389.809 212.402 373.181 197.006 397.167Z" fill="#EF83B3"/>
<path d="M322.23 647.808C322.23 647.808 329.535 652.928 339.339 655.878C344.823 657.528 359.477 661.399 356.426 671.137C355.97 672.591 354.612 674.11 350.655 675.071C344.813 676.489 337.02 677.077 323.046 672.442C306.283 666.882 303.439 668.52 297.27 666.068C290.877 663.527 294.497 654.663 296.799 647.004C296.827 648.988 297.396 654.23 308.939 659.662C312.384 661.284 310.534 645.488 322.23 647.808Z" fill="#272627"/>
<path d="M119.068 618.464H209.541C219.985 618.464 228.452 609.998 228.452 599.553V503.419C228.452 495.298 221.868 488.713 213.747 488.713H119.068V618.464Z" fill="#B3B3B4"/>
<path d="M81.3145 618.464H171.786C182.231 618.464 190.698 609.998 190.698 599.553V503.419C190.698 495.298 184.114 488.713 175.993 488.713H81.3145V618.464Z" fill="#666666"/>
<path d="M606.833 187.453H730.481C745.787 187.453 758.195 199.861 758.195 215.166V272.807C758.195 288.113 745.787 300.52 730.481 300.52H729.564L739.489 333.766C739.925 335.229 738.235 336.396 737.022 335.47L691.209 300.52H606.833C591.528 300.52 579.121 288.113 579.121 272.807V215.166C579.12 199.861 591.528 187.453 606.833 187.453Z" fill="#EF83B3"/>
<path d="M730.424 235.854H611.711C604.135 235.854 597.994 229.713 597.994 222.137C597.994 214.561 604.135 208.42 611.711 208.42H730.424C738 208.42 744.141 214.561 744.141 222.137C744.141 229.713 738 235.854 730.424 235.854Z" fill="white"/>
<path d="M730.424 277.746H611.711C604.135 277.746 597.994 271.605 597.994 264.029C597.994 256.453 604.135 250.312 611.711 250.312H730.424C738 250.312 744.141 256.453 744.141 264.029C744.141 271.605 738 277.746 730.424 277.746Z" fill="white"/>
<path d="M1152.95 195.462H1038.65C1024.5 195.462 1013.03 206.932 1013.03 221.08V274.364C1013.03 288.513 1024.5 299.982 1038.65 299.982H1039.5L1030.32 330.716C1029.92 332.068 1031.48 333.147 1032.6 332.291L1074.95 299.982H1152.95C1167.1 299.982 1178.57 288.512 1178.57 274.364V221.08C1178.57 206.932 1167.1 195.462 1152.95 195.462Z" fill="#EF83B3"/>
<path d="M1151.98 240.497H1036.9C1031.19 240.497 1026.56 235.87 1026.56 230.162V227.577C1026.56 221.869 1031.19 217.242 1036.9 217.242H1151.98C1157.69 217.242 1162.32 221.869 1162.32 227.577V230.162C1162.32 235.87 1157.69 240.497 1151.98 240.497Z" fill="white"/>
<path d="M1095.81 275.656H1041.92C1035.5 275.656 1030.29 270.451 1030.29 264.029C1030.29 257.607 1035.5 252.402 1041.92 252.402H1095.81C1102.23 252.402 1107.44 257.607 1107.44 264.029C1107.44 270.451 1102.23 275.656 1095.81 275.656Z" fill="white"/>
<path d="M832.416 26.8267H718.114C703.966 26.8267 692.496 38.2963 692.496 52.4447V105.729C692.496 119.877 703.966 131.347 718.114 131.347H718.962L709.788 162.081C709.384 163.433 710.946 164.511 712.068 163.656L754.419 131.347H832.416C846.564 131.347 858.035 119.877 858.035 105.729V52.4447C858.035 38.2963 846.565 26.8267 832.416 26.8267Z" fill="#CB5A90"/>
<path d="M795.687 71.8617H717.657C711.235 71.8617 706.029 66.6557 706.029 60.2341C706.029 53.8125 711.235 48.6069 717.657 48.6069H795.687C802.109 48.6069 807.314 53.8129 807.314 60.2341C807.314 66.6557 802.109 71.8617 795.687 71.8617Z" fill="white"/>
<path d="M834.751 107.021H721.381C714.96 107.021 709.754 101.815 709.754 95.3938C709.754 88.9718 714.96 83.7666 721.381 83.7666H834.751C841.172 83.7666 846.378 88.9722 846.378 95.3938C846.378 101.815 841.172 107.021 834.751 107.021Z" fill="white"/>
<path d="M253.837 109.396H403.805C422.369 109.396 437.417 124.444 437.417 143.007V212.918C437.417 231.481 422.369 246.529 403.805 246.529H402.692L414.729 286.853C415.259 288.627 413.21 290.043 411.738 288.92L356.173 246.53H253.837C235.273 246.53 220.225 231.481 220.225 212.918V143.007C220.225 124.444 235.273 109.396 253.837 109.396Z" fill="#CB5A90"/>
<path d="M255.101 168.482H406.1C413.589 168.482 419.66 162.411 419.66 154.922V151.532C419.66 144.042 413.589 137.972 406.1 137.972H255.101C247.612 137.972 241.541 144.043 241.541 151.532V154.922C241.541 162.412 247.613 168.482 255.101 168.482Z" fill="white"/>
<path d="M328.81 214.613H399.518C407.944 214.613 414.774 207.783 414.774 199.357C414.774 190.932 407.944 184.102 399.518 184.102H328.81C320.385 184.102 313.555 190.932 313.555 199.357C313.555 207.783 320.385 214.613 328.81 214.613Z" fill="white"/>
<path d="M976.022 169.075C961.161 169.075 949.07 156.985 949.07 142.123C949.07 127.263 961.161 115.172 976.022 115.172C990.883 115.172 1002.97 127.263 1002.97 142.123C1002.97 156.985 990.883 169.075 976.022 169.075ZM976.022 122.595C965.254 122.595 956.494 131.355 956.494 142.123C956.494 152.892 965.254 161.652 976.022 161.652C986.79 161.652 995.55 152.892 995.55 142.123C995.55 131.355 986.79 122.595 976.022 122.595Z" fill="white"/>
<path d="M431.499 137.589C421.725 137.589 413.773 129.638 413.773 119.864C413.773 110.09 421.725 102.139 431.499 102.139C441.272 102.139 449.224 110.09 449.224 119.864C449.224 129.638 441.273 137.589 431.499 137.589ZM431.499 107.021C424.417 107.021 418.655 112.782 418.655 119.863C418.655 126.945 424.417 132.707 431.499 132.707C438.58 132.707 444.342 126.945 444.342 119.863C444.342 112.782 438.581 107.021 431.499 107.021Z" fill="white"/>
<path d="M359.185 25.8814C351.539 25.8814 345.318 19.6606 345.318 12.0142C345.318 4.36817 351.539 -1.85303 359.185 -1.85303C366.832 -1.85303 373.052 4.36817 373.052 12.0142C373.052 19.661 366.832 25.8814 359.185 25.8814ZM359.185 1.96657C353.645 1.96657 349.138 6.47417 349.138 12.0142C349.138 17.5546 353.645 22.0618 359.185 22.0618C364.726 22.0618 369.233 17.5546 369.233 12.0142C369.233 6.47417 364.726 1.96657 359.185 1.96657Z" fill="white"/>
<path d="M633.852 8.15594C633.852 18.6279 625.363 27.1175 614.891 27.1175C604.418 27.1175 595.93 18.6275 595.93 8.15594C595.93 -2.31646 604.419 -10.8057 614.891 -10.8057C625.363 -10.8057 633.852 -2.31646 633.852 8.15594Z" fill="#CB5A90"/>
<path d="M1021.94 81.8381C1021.94 92.3105 1013.45 100.8 1002.97 100.8C992.503 100.8 984.014 92.3101 984.014 81.8381C984.014 71.3661 992.503 62.877 1002.97 62.877C1013.45 62.877 1021.94 71.3661 1021.94 81.8381Z" fill="white"/>
<path d="M103.757 301.142C103.757 309.641 96.868 316.53 88.3696 316.53C79.8716 316.53 72.9824 309.641 72.9824 301.142C72.9824 292.644 79.8716 285.755 88.3696 285.755C96.868 285.755 103.757 292.644 103.757 301.142Z" fill="#CB5A90"/>
<path d="M901.555 400.95C886.779 405.438 879.425 436.544 873.134 469.105C863.057 488.921 855.53 504.159 845.859 524.14C854.887 526.185 862.363 520.5 862.363 520.5C862.363 520.5 885.323 499.403 895.971 476.197C898.409 470.886 899.24 460.199 900.62 455.449C901.226 440.56 901.555 400.95 901.555 400.95Z" fill="#E7E0E1"/>
<path d="M823.627 657.806L810.573 662.057L804.359 650.59C804.896 650.135 805.241 642.215 805.374 636.195L827.005 637.721C826.357 643.83 825.114 651.845 823.627 657.806Z" fill="#F37A50"/>
<path d="M800.659 666.342C800.659 666.342 795.552 658.929 789.701 658.831C789.701 658.831 778.764 660.193 775.22 665.067C774.107 666.599 774.779 669.662 775.39 671.611C775.771 672.828 776.909 674.101 780.222 674.905C785.117 676.093 791.642 676.586 803.346 672.703C817.386 668.046 819.768 669.419 824.935 667.365C830.289 665.237 828.085 658.665 826.157 652.251C826.157 652.251 822.706 660.489 800.659 666.342Z" fill="#343434"/>
<path d="M803.922 649.457C803.922 649.457 797.803 653.745 789.593 656.216C785 657.598 772.726 660.84 775.282 668.996C775.663 670.213 776.801 671.486 780.115 672.29C785.008 673.478 791.534 673.971 803.238 670.088C817.278 665.431 819.66 666.804 824.827 664.751C830.181 662.622 827.149 655.198 825.221 648.783C825.197 650.446 824.721 654.836 815.054 659.385C812.168 660.744 813.717 647.514 803.922 649.457Z" fill="#343434"/>
<path d="M806.445 659.322C805.967 659.322 805.523 659.016 805.369 658.536C804.09 654.549 799.88 654.542 799.702 654.542C799.08 654.548 798.567 654.049 798.559 653.427C798.551 652.805 799.044 652.293 799.667 652.282C801.756 652.242 806.082 653.361 807.521 657.846C807.712 658.44 807.385 659.077 806.79 659.267C806.676 659.304 806.559 659.322 806.445 659.322Z" fill="#121212"/>
<path d="M801.349 661.77C800.871 661.77 800.427 661.464 800.273 660.984C798.994 656.997 794.784 656.991 794.606 656.99C793.984 656.996 793.471 656.497 793.463 655.875C793.455 655.253 793.948 654.741 794.571 654.73C796.66 654.69 800.986 655.809 802.425 660.294C802.616 660.889 802.289 661.525 801.694 661.715C801.58 661.752 801.463 661.77 801.349 661.77Z" fill="#121212"/>
<path d="M875.832 659.345L863.11 664.504L856.105 653.503C856.608 653.011 857.923 644.582 857.633 638.568L877.79 639.073C877.573 645.211 876.896 653.294 875.832 659.345Z" fill="#F37A50"/>
<path d="M887.541 509.813C858.242 517.21 817.4 539.234 813.536 543.882C805.556 553.483 803.425 584.814 803.068 640.387H829.142C835.839 596.545 843.596 577.107 843.897 559.463C843.897 559.463 866.749 559.518 900.095 544.025C916.534 536.388 933.61 527.617 927.531 512.712C922.689 500.836 915.477 502.759 887.541 509.813Z" fill="#CB5A90"/>
<path d="M920.887 510.182C896.414 514.372 865.427 544.764 861.563 549.412C853.583 559.012 854.56 589.915 854.203 645.488L880.196 646.146C882.467 617.216 892.5 583.573 891.061 562.538C891.061 562.538 913.85 555.982 949.107 545.543C968.393 539.832 974.066 536.407 976.958 523.37C977.942 518.935 978.996 508.741 976.892 506.622C967.581 497.249 944.051 506.215 920.887 510.182Z" fill="#CB5A90"/>
<path d="M853.521 669.476C853.521 669.476 847.906 662.44 842.062 662.755C842.062 662.755 831.248 664.883 828.056 669.994C827.054 671.599 827.939 674.608 828.685 676.51C829.151 677.697 830.377 678.887 833.738 679.456C838.703 680.297 845.248 680.329 856.65 675.632C870.327 670 872.8 671.201 877.809 668.789C883.001 666.289 880.339 659.888 877.965 653.625C877.965 653.625 875.103 662.086 853.521 669.476Z" fill="#343434"/>
<path d="M855.589 652.404C855.589 652.404 849.787 657.112 841.771 660.153C837.286 661.856 825.272 665.953 828.394 673.909C828.861 675.096 830.085 676.286 833.447 676.855C838.413 677.696 844.957 677.728 856.358 673.032C870.036 667.399 872.509 668.6 877.518 666.188C882.71 663.688 879.162 656.496 876.788 650.232C876.881 651.892 876.715 656.305 867.392 661.523C864.608 663.082 865.223 649.775 855.589 652.404Z" fill="#343434"/>
<path d="M861.009 662.353C860.531 662.353 860.087 662.047 859.933 661.567C858.654 657.58 854.444 657.574 854.266 657.573C853.644 657.579 853.132 657.081 853.123 656.458C853.115 655.836 853.609 655.324 854.231 655.313C856.32 655.273 860.647 656.392 862.085 660.877C862.276 661.471 861.949 662.108 861.355 662.298C861.24 662.335 861.123 662.353 861.009 662.353Z" fill="#121212"/>
<path d="M855.913 664.801C855.435 664.801 854.991 664.495 854.838 664.015C853.558 660.028 849.348 660.022 849.17 660.021C848.548 660.027 848.036 659.528 848.027 658.906C848.019 658.284 848.513 657.772 849.135 657.761C851.225 657.72 855.551 658.84 856.99 663.325C857.18 663.92 856.853 664.556 856.259 664.746C856.144 664.783 856.028 664.801 855.913 664.801Z" fill="#121212"/>
<path d="M938.305 376.054H938.293L928.439 376.09L926.207 399.365L937.71 405.438L949.977 399.433L947.994 376.09L938.305 376.054Z" fill="#F37A50"/>
<path d="M958.997 405.176C951.841 402.763 944.312 401.641 936.763 401.862C911.194 401.862 907.279 408.322 907.279 408.172L926.254 460.277L936.763 465.463L948.264 462.056C948.264 462.056 963.174 406.73 958.997 405.176Z" fill="#FFD0B7"/>
<path d="M978.11 508.784C978.11 508.784 957.292 514.114 937.968 514.242C918.644 514.1 898.219 507.148 898.219 507.148C898.219 507.148 900.816 471.659 900.551 458.031C900.175 442.382 901.554 421.631 901.554 400.949C901.554 400.949 915.261 398.743 922.994 397.79C924.25 397.634 925.348 397.514 926.206 397.439C926.206 397.439 930.612 406.681 949.807 397.439C950.816 397.338 952.064 397.344 953.46 397.425C961.524 397.907 974.512 400.949 974.512 400.949C974.512 421.575 975.345 441.788 975.067 457.44C975.926 471.4 978.11 508.784 978.11 508.784Z" fill="#B0B0B0"/>
<path d="M927.27 445.657L922.592 442.946C922.592 442.946 921.297 436.311 913.784 436.151C914.645 438.936 915.884 442.946 915.884 442.946C915.884 442.946 912.186 445.817 903.416 440.904C894.843 438.978 898.505 445.229 895.663 445.677C891.47 446.34 898.719 454.579 907.28 455.84C918.356 457.471 919.671 455.203 919.671 455.203L925.939 457.393L927.27 445.657Z" fill="#F37A50"/>
<path d="M970.562 452.747C954.925 451.654 928.249 443.931 928.249 443.931C923.981 450.478 925.161 459.174 925.161 459.174C949.445 480.464 985.992 487.347 997.205 482.222C1007.44 477.544 1000.22 415.225 974.512 400.949L973.621 401.033C964.809 415.944 970.562 452.747 970.562 452.747Z" fill="#E7E0E1"/>
<path d="M847.829 525.968C847.973 525.742 848.063 525.499 848.128 525.248C848.166 525.273 848.201 525.3 848.24 525.325C850.504 526.771 853.179 526.626 854.216 525.002C854.386 524.734 854.496 524.443 854.56 524.138C856.225 524.527 857.801 524.126 858.541 522.966C858.835 522.505 858.96 521.974 858.945 521.418C860.582 521.915 862.285 521.469 863.114 520.17C864.15 518.545 863.423 516.227 861.491 514.994C859.557 513.759 857.151 514.076 856.114 515.701C855.852 516.112 855.703 516.568 855.658 517.039C853.556 516.006 851.278 516.261 850.341 517.73C850.172 517.997 850.061 518.288 849.997 518.593C848.332 518.204 846.756 518.605 846.015 519.765C845.743 520.193 845.615 520.681 845.609 521.194C844.176 520.688 842.647 521.051 841.918 522.193C841.043 523.566 841.657 525.523 843.289 526.565C844.921 527.608 846.955 527.34 847.829 525.968Z" fill="#F37A50"/>
<path d="M953.461 397.425V397.428C952.126 399.657 950.237 401.343 947.572 402.683C943.354 404.812 937.62 405.714 934.09 405.438C931.295 405.219 928.194 404.078 926.207 402.504C924.098 400.83 923.181 398.695 922.994 397.79C924.251 397.634 925.541 397.439 926.4 397.364C926.4 397.364 930.613 406.681 949.808 397.438C950.817 397.338 952.065 397.344 953.461 397.425Z" fill="#E7E0E1"/>
<path d="M935.34 322.801C935.171 304.091 961.315 298.796 969.919 304.422C991.14 318.297 985.141 326.183 985.141 337.514C985.141 348.844 986.751 360.912 996.157 360.016C1010.06 358.693 1026.79 364.982 1019.89 377.224C1012.61 390.13 1008.56 383.571 1019.89 392.778C1031.22 401.984 1006.39 417.223 985.141 401.643C963.896 386.064 969.607 383.598 976.689 377.224C983.77 370.851 959.788 361.935 952.049 360.016C944.309 358.098 935.34 322.801 935.34 322.801Z" fill="#201F1D"/>
<path d="M960.159 354.666C962.792 372.06 953.852 387.836 940.192 389.905C926.53 391.973 913.321 379.549 910.688 362.155C908.055 344.762 916.995 328.985 930.656 326.917C944.317 324.848 957.526 337.273 960.159 354.666Z" fill="#F37A50"/>
<path d="M918.212 363.954C918.109 365.277 916.954 366.267 915.631 366.165C914.308 366.063 913.318 364.908 913.42 363.585C913.522 362.262 914.677 361.272 916.001 361.374C917.323 361.475 918.314 362.63 918.212 363.954Z" fill="black"/>
<path d="M937.451 361.176C937.341 362.608 936.09 363.68 934.658 363.569C933.226 363.459 932.154 362.208 932.265 360.776C932.375 359.344 933.625 358.272 935.057 358.382C936.49 358.493 937.562 359.743 937.451 361.176Z" fill="black"/>
<path d="M939.307 358.099C939.109 358.083 938.915 358.004 938.759 357.858C936.495 355.741 933.025 356.557 932.99 356.565C932.506 356.684 932.016 356.388 931.896 355.904C931.776 355.42 932.236 354.685 932.691 354.482C934.286 353.771 937.218 353.373 940.211 356.17C940.576 356.511 940.378 357.449 940.037 357.814C939.842 358.023 939.571 358.119 939.307 358.099Z" fill="#272627"/>
<path d="M911.969 362.35C911.872 362.343 911.775 362.319 911.681 362.279C911.222 362.081 910.891 361.195 911.088 360.736C912.62 357.173 914.994 356.97 916.306 357.091C916.803 357.137 917.392 357.645 917.419 358.144C917.445 358.641 917.065 359.066 916.568 359.095C916.451 359.103 913.947 359.299 912.869 361.805C912.712 362.17 912.344 362.379 911.969 362.35Z" fill="#272627"/>
<path d="M923.117 366.969C922.222 368.635 921.493 370.296 920.5 371.404C920.165 371.778 920.19 372.358 920.546 372.71C922.019 374.165 925.281 374.779 927.243 375.024C927.53 375.059 927.644 374.665 927.383 374.541C925.174 373.495 924.09 372.571 923.592 372.035C923.345 371.769 923.245 371.402 923.314 371.045C923.472 370.226 923.777 368.561 923.921 367.213C923.97 366.748 923.339 366.557 923.117 366.969Z" fill="#DE623C"/>
<path d="M964.415 352.627C948.745 356.664 920.936 354.541 913.963 340.048C913.053 329.547 924.92 323.358 935.339 322.801C950.332 322 965.947 338.326 964.415 352.627Z" fill="#201F1D"/>
<path d="M954.783 353.772C952.374 357.938 953.184 362.914 956.594 364.886C960.003 366.858 964.721 365.079 967.131 360.913C969.54 356.746 968.73 351.77 965.32 349.798C961.911 347.826 957.193 349.605 954.783 353.772Z" fill="#F37A50"/>
<path d="M960.575 362.298C960.417 362.285 960.259 362.237 960.115 362.151C958.034 360.9 957.087 358.931 957.583 356.883C958.09 354.786 959.954 353.165 962.015 353.029C962.595 352.991 963.096 353.429 963.134 354.009C963.173 354.589 962.734 355.091 962.154 355.129C961.025 355.204 959.916 356.192 959.628 357.378C959.353 358.518 959.91 359.573 961.199 360.347C961.697 360.646 961.858 361.292 961.559 361.791C961.346 362.143 960.96 362.328 960.575 362.298Z" fill="#DE623C"/>
<path d="M937.821 377.107C937.721 376.552 937.427 376.094 936.923 376.347C935.641 376.99 933.505 378.006 931.391 378.769C929.277 379.531 926.984 380.112 925.587 380.435C925.037 380.562 925.09 381.11 925.381 381.593C926.585 383.594 929.879 385.141 933.12 383.973C936.359 382.804 938.195 379.173 937.821 377.107Z" fill="white"/>
</svg>
