<svg width="882" height="800" viewBox="0 0 882 800" fill="none" xmlns="http://www.w3.org/2000/svg">
<path opacity="0.3" d="M440.972 800C684.514 800 881.944 782.307 881.944 760.481C881.944 738.655 684.514 720.962 440.972 720.962C197.43 720.962 0 738.655 0 760.481C0 782.307 197.43 800 440.972 800Z" fill="#F5C1FF"/>
<path d="M793.214 400.733H420.381V412.425H793.214V400.733Z" fill="#E697D8"/>
<path d="M437.73 736.253L469.189 439.814H488.474L447.371 736.253H437.73Z" fill="#263238"/>
<path d="M775.865 736.253L744.405 439.814H725.121L766.222 736.253H775.865Z" fill="#263238"/>
<path d="M779.15 412.419H434.443V450.58H779.15V412.419Z" fill="#263238"/>
<path d="M619.295 353.604L588.215 389.531L586.744 402.172H604.24L618.095 372.585L619.295 353.604Z" fill="#263238"/>
<path d="M677.099 402.17H604.499L595.123 347.624H667.724L677.099 402.17Z" fill="#263238"/>
<path d="M680.539 402.17H607.936L598.561 347.624H671.161L680.539 402.17Z" fill="#263238"/>
<path d="M670.007 393.767H615.575L609.092 356.044H663.521L670.007 393.767Z" fill="white"/>
<path d="M705.318 347.994C703.524 346.166 701.731 344.339 699.937 342.512C706.173 343.341 711.411 347.443 716.309 351.393C714.618 345.149 711.435 339.432 708.266 333.794C705.12 328.197 701.96 322.609 698.785 317.028C709.449 324.727 717.791 335.314 724.213 346.794C724.995 348.19 725.829 349.682 727.25 350.417C727.24 348.318 726.698 346.263 726.161 344.234C723.92 335.777 721.679 327.318 719.438 318.862C723.617 324.177 727.199 329.963 730.089 336.076C731.534 339.131 732.831 342.308 734.939 344.947C735.054 342.971 734.959 340.988 734.864 339.012C734.286 327.018 733.708 315.023 733.13 303.031C738.946 317.25 739.086 333.057 739.142 348.421C740.462 346.246 741.07 343.726 741.769 341.279C744.162 332.883 747.822 324.85 752.587 317.537C748.588 328.74 745.322 340.204 742.818 351.832C745.815 342.265 752.779 334.006 761.703 329.437C753.357 337.284 749.444 348.617 743.388 358.341C745.55 353.602 750.113 350.037 755.234 349.082C752.435 350.634 750.855 353.657 749.252 356.427C747.935 358.701 746.5 360.907 744.954 363.033C744.301 363.933 743.596 364.844 742.622 365.381C741.551 365.967 740.282 366.03 739.062 366.069C733.48 366.252 727.893 366.218 722.309 366.184C717.801 366.157 716.889 361.564 714.582 358.404C711.839 354.641 708.57 351.307 705.318 347.994Z" fill="#366129"/>
<path d="M753.33 366.214H712.334L716.923 400.736H748.741L753.33 366.214Z" fill="#F5C1FF"/>
<path d="M756.611 359.02H709.051V370.051H756.611V359.02Z" fill="#F2A9EB"/>
<path d="M525.977 0H424.223V125.577H525.977V0Z" fill="#E697D8"/>
<path d="M509.932 15.4614H440.27V110.115H509.932V15.4614Z" fill="white"/>
<path d="M495.29 35.3604H454.908V90.2314H495.29V35.3604Z" fill="#F5C1FF"/>
<path d="M657.676 65.0156H555.922V190.593H657.676V65.0156Z" fill="#E697D8"/>
<path d="M641.632 80.4771H571.969V175.131H641.632V80.4771Z" fill="white"/>
<path d="M626.99 100.376H586.607V155.247H626.99V100.376Z" fill="#F5C1FF"/>
<path d="M789.379 130.045H687.625V255.623H789.379V130.045Z" fill="#E697D8"/>
<path d="M773.335 145.507H703.672V240.16H773.335V145.507Z" fill="white"/>
<path d="M758.693 165.406H718.311V220.277H758.693V165.406Z" fill="#F5C1FF"/>
<path d="M637.703 171.069C639.532 171.386 641.496 170.178 642.048 168.397C642.6 166.615 641.672 164.487 639.993 163.685C640.308 163.321 640.561 162.927 640.773 162.515C641.579 161.975 642.281 161.25 642.832 160.409C644.231 158.263 645.34 154.577 643.853 152.219C643.024 150.905 641.634 149.974 640.446 149.022C639.12 147.959 637.705 146.937 636.58 145.649C635.41 144.307 634.729 142.626 635.604 140.937C636.275 139.643 637.576 138.946 638.411 137.841C640.567 136.839 642.432 135.519 643.2 133.324C644.17 130.554 642.887 127.462 641.094 125.132C637.871 120.941 632.888 118.164 627.654 117.637C630.42 117.182 629.917 112.439 627.308 111.401C624.698 110.364 621.814 111.75 619.405 113.181C620.783 110.689 622.091 107.62 622.068 104.896C622.224 103.825 622.19 102.721 621.854 101.691C620.995 99.0762 618.49 97.352 615.885 96.8135C612.841 96.184 609.184 96.5483 606.292 97.6747C605.999 97.7875 605.714 97.9182 605.431 98.0548C605.393 97.546 605.336 97.0392 605.239 96.5364C604.746 93.9589 603.307 91.4092 601.117 89.9027C601.594 88.4358 601.869 86.9016 601.899 85.3535C602.02 78.9059 598.215 72.7473 592.288 70.1738C588.859 68.6851 585.154 68.5426 581.576 69.5403C581.485 69.5661 581.434 69.6215 581.394 69.6829C573.119 69.5819 565.401 75.1407 561.321 82.396C558.577 80.3292 554.432 80.8736 551.791 83.0789C550.144 84.4528 549.024 86.3334 548.354 88.3863C547.531 87.539 546.626 86.7729 545.636 86.1216C544.039 85.0724 542.178 84.2766 540.276 83.9757C537.516 82.6612 534.212 82.8612 531.49 84.3003C527.859 86.2186 526.523 89.8868 525.611 93.6659C525.074 95.8851 524.46 98.4309 523.243 100.486C522.809 100.66 522.364 100.795 521.907 100.848C520.889 99.5018 519.82 98.2012 518.514 97.3342C516.896 96.2592 514.895 95.889 512.949 95.9227C506.286 96.0375 499.996 101.123 498.464 107.64C496.932 114.163 500.313 121.499 506.252 124.528C503.829 124.522 501.732 127.088 502.214 129.471C502.598 131.38 504.545 132.708 506.45 132.672C502.334 133.607 497.904 135.812 498.036 139.862C498.108 142.026 499.592 143.863 501.162 145.338C501.558 145.71 501.97 146.062 502.386 146.411C502.309 146.47 502.227 146.534 502.156 146.587C499.343 148.749 496.926 151.554 495.861 155.002C494.843 158.291 495.132 162.101 497.183 164.92C498.278 166.425 499.771 167.628 501.281 168.686C501.924 169.137 502.619 169.551 503.344 169.753C503.473 169.826 503.585 169.921 503.716 169.99C501.271 170.659 498.977 171.74 497.793 173.91C495.748 177.661 498.496 182.527 502.291 184.412C504.439 185.479 506.895 185.865 509.279 185.59C508.333 186.492 507.721 187.852 507.842 189.167C508.083 191.774 510.219 193.803 512.498 195.054C518.235 198.204 525.741 197.758 531.102 193.951C532.242 193.142 533.41 192.152 534.802 192.15C537.391 192.146 538.668 195.503 538.229 198.083C537.789 200.664 536.384 203.097 536.518 205.712C536.698 209.216 539.702 212.039 543.009 213.106C546.108 214.104 549.435 213.886 552.69 213.583C552.254 214.437 552.07 215.448 552.294 216.377C552.817 218.55 554.757 220.082 556.766 221.019C562.788 223.826 570.473 222.464 575.194 217.748C575.216 219.259 576.639 220.599 578.132 220.512C579.625 220.425 580.884 218.926 580.731 217.424C584.205 219.443 589.337 216.551 589.465 212.504C588.693 215.272 591.795 217.616 594.6 218.111C600.345 219.124 606.561 216.016 609.244 210.792C608.867 211.463 609.244 212.439 609.97 212.679C611.089 212.093 611.726 210.701 611.449 209.458C614.43 210.576 618.065 209.541 620.021 207.019C621.705 204.845 622.022 201.717 620.939 199.191C622.709 201.472 626.803 201.341 629.81 200.375C636.402 198.257 642.901 194.167 645.399 187.666C647.894 181.169 644.516 172.279 637.703 171.069ZM497.589 163.335C496.269 160.773 496.409 157.689 497.369 155.022C498.246 152.591 499.941 150.538 501.861 148.842C501.78 149.331 501.701 149.822 501.683 150.315C501.608 150.366 501.529 150.408 501.455 150.461C499.216 152.1 497.932 154.87 497.548 157.57C497.162 160.286 497.744 163.032 499.05 165.36C498.486 164.746 497.977 164.083 497.589 163.335ZM534.541 84.8903C531.217 86.7551 529.504 90.3501 528.182 93.755C527.392 95.7861 526.472 97.9439 524.817 99.4227C526.549 95.604 526.889 90.5777 529.427 87.5113C530.966 85.6544 533.29 84.5676 535.673 84.3875C535.291 84.528 534.909 84.6824 534.541 84.8903ZM599.916 89.2316C599.12 88.8713 598.231 88.6436 597.318 88.5664C597.471 87.8043 597.603 87.05 597.681 86.3156C598.494 78.4248 591.603 71.1814 583.792 69.8828C590.841 69.2592 597.807 73.6183 599.914 80.5411C600.779 83.3838 600.785 86.4166 599.916 89.2316ZM609.054 100.509C607.87 100.963 606.581 101.377 605.284 101.662C605.401 100.892 605.461 100.114 605.468 99.3375C605.946 99.1099 606.436 98.908 606.945 98.7476C609.509 97.934 612.506 97.5737 615.173 98.0686C616.376 98.2923 617.596 98.7634 618.597 99.4959C615.786 98.3279 612.096 99.3455 609.054 100.509ZM632.065 140.68C632.354 140.191 632.918 139.947 633.45 139.751C633.809 139.619 634.179 139.488 634.547 139.358C633.939 140.284 633.522 141.307 633.464 142.256C633.294 145.005 635.454 147.104 637.433 148.676C638.74 149.713 640.08 150.705 641.401 151.726C643.065 153.013 643.525 154.502 643.172 156.566C642.923 158.029 642.287 159.494 641.357 160.652C641.82 157.986 640.854 154.917 639.296 152.562C637.095 149.232 633.945 146.532 632.259 142.915C631.932 142.208 631.669 141.349 632.065 140.68Z" fill="black"/>
<path d="M521.286 208.842C514.886 206.287 440.498 243.672 435.798 259.166C431.089 274.692 486.805 353.509 486.805 353.509L499.405 342.851C499.405 342.851 465.692 276.038 466.443 271.772C467.193 267.508 511.657 256.434 513.314 253.746C514.971 251.058 521.286 208.842 521.286 208.842Z" fill="#D76C64"/>
<path d="M484.176 331.367C482.256 335.043 480.686 339.024 479.637 343.11C483.964 349.486 486.807 353.509 486.807 353.509L499.407 342.85C499.407 342.85 495.125 334.364 489.654 323.26C487.458 325.707 485.649 328.548 484.176 331.367Z" fill="#E0321D"/>
<path d="M525.985 714.363C525.985 714.363 522.14 727.181 517.469 736.03C512.789 744.891 491.441 747.744 487.04 749.607C482.637 751.471 495.283 762.011 510.983 756.868C526.67 751.729 531.166 754.459 535.8 755.518C540.434 756.577 552.441 751.256 549.928 742.619C547.42 733.991 542.893 721.395 543.986 715.504C545.08 709.618 525.985 714.363 525.985 714.363Z" fill="black"/>
<path d="M665.785 632.865C665.785 632.865 680.537 647.332 689.259 652.186C697.987 657.044 715.84 675.591 717.938 680.234C720.036 684.88 729.289 678.145 723.232 661.595C717.19 645.083 705.631 637.529 706.276 632.632C706.922 627.738 701.004 615.146 693.054 617.858C685.1 620.57 683.225 617.161 673.664 612.75C664.108 608.346 665.785 632.865 665.785 632.865Z" fill="black"/>
<path d="M685.274 622.695C685.539 631.9 682.027 642.768 676.815 644.421C669.336 646.767 668.556 642.188 644.83 623.294C621.168 604.476 569.583 574.465 553.847 557.06C538.172 539.699 524.265 438.287 524.265 438.287C524.265 438.287 529.098 540.315 535.779 551.769C549.046 574.554 548.941 605.011 546.01 637.053C542.844 671.419 553.736 713.06 552.606 719.811C552.235 722.002 548.633 725.257 543.846 727.88C543.608 727.992 543.349 728.129 543.092 728.264C533.081 733.421 518.612 735.503 517.343 719.811C515.424 696.134 504.2 579.289 496.416 554.79C488.682 530.399 448.565 427.457 456.503 399.72C459.93 387.724 469.731 373.235 479.708 360.662C479.813 360.512 479.94 360.363 480.068 360.213C480.09 360.191 480.09 360.191 480.09 360.213C492.983 344.051 506.079 331.17 506.079 331.17L553.75 341.848L555.53 342.254L560.407 343.345C560.407 343.345 594.51 396.357 596.634 424.966C598.745 453.675 579.289 518.761 588.381 534.002C597.474 549.276 617.507 543.023 644.458 573.737C671.553 604.567 676.932 604.389 682.607 612.456C684.227 614.746 685.044 618.108 685.244 621.802C685.27 622.093 685.272 622.404 685.274 622.695Z" fill="#CB5A90"/>
<path d="M550.952 710.413C543.447 715.19 534.135 718.274 525.243 718.749C522.635 718.888 519.721 718.806 517.184 717.882C517.241 718.571 517.296 719.222 517.342 719.802C518.611 735.495 533.08 733.412 543.091 728.255C543.35 728.119 543.61 727.984 543.847 727.871C548.634 725.248 552.237 721.994 552.607 719.802C552.87 718.226 552.474 714.728 551.76 709.882C551.49 710.06 551.221 710.243 550.952 710.413Z" fill="#CB5A90"/>
<path d="M685.276 622.697C685.274 622.408 685.272 622.095 685.248 621.806C685.048 618.11 684.231 614.751 682.611 612.461C680.469 609.416 678.367 607.545 675.126 604.738C675.198 606.577 675.16 608.418 675.065 610.212C674.552 619.957 672.256 630.313 667.107 638.708C666.665 639.427 666.186 640.136 665.686 640.83C670.629 644.91 672.723 645.71 676.817 644.425C682.031 642.77 685.541 631.9 685.276 622.697Z" fill="#CB5A90"/>
<path d="M525.097 437.447C521.738 433.155 517.875 429.335 513.645 425.964C509.612 422.751 505.21 419.825 500.461 417.857C500.12 417.716 499.898 418.281 500.209 418.459C504.709 421.022 509.153 423.602 513.263 426.811C513.748 427.189 514.209 427.597 514.686 427.987C513.368 427.28 512.016 426.641 510.598 426.173C508.464 425.471 506.098 424.944 503.846 425.021C503.45 425.035 503.313 425.696 503.743 425.768C505.934 426.134 508.096 426.425 510.234 427.07C512.404 427.725 514.49 428.581 516.468 429.709C516.565 429.764 516.654 429.754 516.731 429.717C519.564 432.233 522.221 434.961 524.695 437.851C524.941 438.136 525.319 437.73 525.097 437.447Z" fill="black"/>
<path d="M521.923 348.089C519.5 351.71 517.849 356.088 516.511 360.234C515.147 364.458 514.163 368.805 513.46 373.196C512.041 382.073 511.441 391.294 511.708 400.303C511.718 400.64 512.197 400.638 512.217 400.303C512.774 391.298 512.837 382.332 514.242 373.418C514.911 369.176 515.818 364.967 517.079 360.869C518.433 356.47 520.375 352.458 522.303 348.316C522.426 348.055 522.086 347.847 521.923 348.089Z" fill="black"/>
<path d="M518.746 339.696C513.603 347.899 510.123 357.269 507.911 366.738C505.684 376.273 504.837 386.169 505.601 395.959C505.631 396.331 506.193 396.341 506.175 395.959C505.75 386.215 506.563 376.461 508.786 366.985C511.017 357.479 514.753 348.584 519.268 340.009C519.452 339.656 518.958 339.359 518.746 339.696Z" fill="black"/>
<path d="M574.265 370.044C570.921 372.606 568.201 375.848 563.959 376.911C559.721 377.974 555.872 375.975 552.936 372.95C549.983 369.908 547.746 366.124 545.596 362.476C543.163 358.343 540.97 354.057 539.228 349.575C539.071 349.173 538.426 349.343 538.58 349.757C541.29 357.026 545.095 364.091 549.688 370.319C553.422 375.383 558.83 379.693 565.329 377.349C568.76 376.112 572.317 373.415 574.683 370.596C574.916 370.317 574.599 369.789 574.265 370.044Z" fill="black"/>
<path d="M505.931 343.273C505.117 346.694 502.942 349.776 500.707 352.387C498.406 355.064 495.75 357.613 492.865 359.648C490.211 361.535 487.014 362.907 483.726 362.414C482.239 362.178 480.837 361.6 479.711 360.656C479.816 360.505 479.943 360.357 480.071 360.207C480.093 360.185 480.093 360.185 480.093 360.207C481.574 361.299 483.5 361.792 485.367 361.707C488.556 361.557 491.44 359.65 493.843 357.657C496.203 355.687 498.416 353.48 500.358 351.104C502.383 348.6 503.886 345.862 505.43 343.061C505.598 342.78 505.994 342.974 505.931 343.273Z" fill="black"/>
<path d="M685.272 622.694C684.043 621.247 682.813 619.776 681.584 618.307C667.22 601.457 650.662 586.685 632.212 574.665C623.033 568.696 613.436 563.549 603.549 558.869C598.737 556.597 593.861 554.172 589.987 550.446C586.453 547.053 583.987 542.759 582.348 538.182C578.671 527.916 578.626 516.393 579.283 505.679C580.022 493.799 582.051 482.094 584.012 470.43C586.014 458.546 587.946 446.597 588.275 434.561C588.581 423.044 587.182 411.609 584.06 400.561C578 379.185 566.528 359.763 553.746 341.85L555.526 342.255C556.737 344.007 557.907 345.761 559.057 347.537C571.076 365.959 581.825 385.637 586.546 407.399C588.934 418.437 589.47 429.729 588.659 441.021C587.825 452.785 585.763 464.42 583.846 476.096C581.863 488.031 580.024 500.053 579.794 512.206C579.606 522.844 580.245 534.508 585.753 543.949C591.587 553.952 602.762 557.525 612.519 562.514C622.199 567.461 631.547 573.164 640.438 579.491C649.207 585.78 657.585 592.673 665.418 600.15C672.466 606.857 679.288 614.016 685.246 621.805C685.268 622.092 685.27 622.403 685.272 622.694Z" fill="#000052"/>
<path d="M543.847 727.87C543.609 727.983 543.35 728.119 543.093 728.254C542.944 718.762 541.353 709.283 540.668 699.864C539.921 689.624 539.605 679.377 539.438 669.145C539.086 648.77 539.141 628.39 536.72 608.224C534.305 588.052 528.638 568.556 524.817 548.762C521.069 529.245 518.541 509.566 517.314 489.855C516.091 470.027 516.114 450.191 517.615 430.519C517.637 430.217 518.102 430.217 518.078 430.519C517.942 432.944 517.825 435.393 517.71 437.822C516.906 457.666 517.092 477.589 518.7 497.504C520.29 517.543 523.225 537.51 527.446 557.27C529.582 567.204 532.062 577.088 534.141 587.074C536.16 596.807 537.625 606.644 538.494 616.584C540.256 636.841 540.01 657.247 540.513 677.669C540.765 688.004 541.254 698.354 542.281 708.674C542.93 715.038 543.71 721.452 543.847 727.87Z" fill="#000052"/>
<path d="M496.372 336.133C496.372 336.133 497.723 311.557 491.867 300.1C486.023 288.664 485.437 274.494 490.392 259.485C496.588 240.71 508.129 212.702 518.544 208.355C528.953 204.01 607.898 236.62 612.681 250.481C616.739 262.236 566.726 333.249 562.585 337.545C558.445 341.841 566.619 339.655 562.159 347.978C559.683 352.602 538.873 355.55 522.327 352.719C507.975 350.262 497.53 342.829 496.372 336.133Z" fill="#D0CDD0"/>
<path d="M534.789 321.702C533.305 318.699 530.735 316.072 528.288 313.877C525.727 311.579 522.876 309.668 519.893 307.993C516.957 306.346 513.883 304.854 510.759 303.619C507.269 302.237 503.622 300.691 499.962 299.855C499.627 299.778 499.378 300.273 499.714 300.447C502.779 302.033 506.188 303.042 509.399 304.294C512.683 305.572 515.967 306.818 519.091 308.479C522.116 310.086 524.964 312.034 527.512 314.35C530.086 316.692 532.057 319.452 534.328 322.069C534.556 322.332 534.932 321.993 534.789 321.702Z" fill="black"/>
<path d="M547.771 243.096C544.091 248.859 540.451 254.614 537.198 260.642C535.444 263.892 533.76 267.178 532.146 270.5C531.376 272.084 530.616 273.675 529.868 275.269C529.357 276.356 529.096 277.27 527.656 277.047C526.825 276.918 525.984 276.635 525.16 276.392C528.375 263.625 533.49 251.484 540.639 240.418C540.916 239.988 540.229 239.588 539.954 240.018C532.762 251.248 527.28 263.645 524.085 276.597C524.022 276.855 524.166 277.132 524.43 277.203C525.417 277.466 526.405 277.74 527.395 277.993C527.93 278.13 528.478 278.343 529.024 278.153C530.363 277.686 530.883 275.277 531.408 274.137C533.124 270.401 534.979 266.723 536.895 263.087C540.427 256.389 544.139 249.696 548.278 243.344C548.108 243.261 547.94 243.177 547.771 243.096Z" fill="black"/>
<path d="M529.338 270.734C529.954 270.981 530.255 271.682 530.005 272.298C529.758 272.913 529.057 273.212 528.442 272.965C527.826 272.717 527.527 272.016 527.774 271.401C528.022 270.785 528.723 270.486 529.338 270.734Z" fill="black"/>
<path d="M533.225 264.635C532.742 265.091 531.98 265.069 531.525 264.586C531.07 264.103 531.091 263.341 531.574 262.885C532.057 262.43 532.82 262.452 533.275 262.935C533.73 263.418 533.708 264.18 533.225 264.635Z" fill="black"/>
<path d="M534.529 256.72C534.529 256.055 535.068 255.516 535.733 255.516C536.398 255.516 536.937 256.055 536.937 256.72C536.937 257.385 536.398 257.923 535.733 257.923C535.068 257.921 534.529 257.383 534.529 256.72Z" fill="black"/>
<path d="M540.11 250.042C539.627 250.497 538.865 250.475 538.41 249.992C537.954 249.509 537.976 248.747 538.459 248.292C538.942 247.836 539.704 247.858 540.16 248.341C540.615 248.824 540.593 249.586 540.11 250.042Z" fill="black"/>
<path d="M527.794 212.573C523.573 211.999 524.965 235.055 539.182 244.821C553.422 254.602 586.555 243.627 588.699 242.216C590.839 240.804 559.822 216.934 527.794 212.573Z" fill="#D76C64"/>
<path d="M569.647 230.35C569.647 230.35 567.661 238.009 553.675 239.013C539.659 240.046 540.964 231.748 540.964 231.748L540.16 224.579L537.82 203.91L566.469 202.489L567.255 209.451L569.647 230.35Z" fill="#D76C64"/>
<path d="M566.222 202.502L537.82 203.912L539.77 221.137C551.048 221.283 561.736 212.682 566.222 202.502Z" fill="#E0321D"/>
<path d="M504.761 347.027C504.175 345.869 499.291 340.837 496.607 338.812C498.31 340.057 499.664 340.898 501.224 342.203C502.96 343.652 505.644 346.594 506.677 345.212C507.709 343.83 506.858 340.773 504.836 337.517C502.447 333.665 499.735 331.461 498.567 330.388C497.322 329.246 494.598 328.145 492.367 330.192C488.356 333.872 484.69 338.22 482.188 343.101C479.408 348.524 481.412 350.295 483.124 353.304C485.276 357.082 493.022 359.358 494.72 357.076C496.417 354.795 490.227 353.698 487.816 349.236C489.607 352.534 498.062 356.183 500.667 354.073C502.039 352.962 500.531 351.602 499.676 350.986C497.124 349.147 494.024 347.963 492.276 345.002C494.239 346.71 500.079 350.834 502.696 350.806C505.155 350.776 505.43 348.351 504.761 347.027Z" fill="#D76C64"/>
<path d="M534.013 193.279C533.394 200.805 527.805 206.554 521.566 206.051C515.326 205.548 510.763 198.982 511.394 191.458C511.426 191.083 511.475 190.729 511.529 190.357C512.101 186.524 514.108 182.894 517.222 180.651C518.171 179.974 519.234 179.431 520.388 179.041C521.134 178.808 521.235 179.843 520.673 180.11C519.806 180.544 518.954 180.809 518.145 181.31C517.971 181.401 517.796 181.512 517.642 181.625C516.668 182.343 515.827 183.216 515.124 184.167C513.554 186.303 512.651 188.892 512.43 191.539C511.846 198.501 515.997 204.551 521.657 205.006C527.316 205.463 532.412 200.158 532.986 193.196C533.41 188.051 531.238 183.412 527.791 181.165C527.984 181.098 528.178 181.009 528.35 180.938C528.522 180.869 528.716 180.779 528.89 180.667C532.329 183.208 534.447 187.987 534.013 193.279Z" fill="#FFCF00"/>
<path d="M539.303 209.225C553.289 210.755 572.958 205.228 582.627 192.078C587.047 186.068 590.326 178.838 591.975 170.769C597.207 145.149 583.708 121.114 561.855 117.009C540.014 112.897 524.765 128.199 517.537 156.939C516.387 161.506 515.494 165.98 514.674 170.213C510.266 192.949 525.319 207.695 539.303 209.225Z" fill="#D76C64"/>
<path d="M546.606 180.323C544.064 178.697 541.249 180.384 536.054 179.877C530.862 179.372 527.948 177.486 527.001 178.452C524.812 180.691 527.93 187.532 535.094 188.849C542.262 190.169 549.145 181.95 546.606 180.323Z" fill="white"/>
<path d="M611.381 140.979C609.767 133.488 604.367 127.727 598.856 122.942C592.256 117.213 584.941 112.134 576.733 110.071C568.171 107.917 559.214 109.18 550.569 110.916C546.99 111.635 543.367 112.468 539.901 113.702C538.04 114.545 536.121 115.263 534.318 116.23C532.154 117.39 530.216 118.991 528.73 120.957C526.562 123.825 524.173 129.685 527.75 132.314C527.995 132.399 528.245 132.482 528.518 132.516C531.269 132.842 534.227 131.328 536.725 130.281C538.937 129.354 541.08 128.274 543.189 127.113C543.088 127.893 543.169 128.709 543.464 129.412C544.63 132.177 547.972 132.516 550.399 132.102C552.833 131.688 555.082 130.507 557.07 128.883C556.999 129.245 556.947 129.618 556.931 130.004C556.868 131.338 557.165 132.726 557.786 133.88C558.489 135.18 559.608 136.075 560.742 136.899C562.201 137.96 563.749 138.963 565.416 139.536C565.921 141.331 566.424 143.131 566.992 144.9C567.603 146.801 568.405 148.592 569.345 150.295C568.356 152.795 568.32 155.808 568.948 158.364C569.803 161.848 572.103 164.859 575.235 166.148C576.583 166.702 578.044 166.597 579.402 167.017C579.406 169.172 578.608 171.176 577.745 173.599C575.793 179.075 579.758 182.046 582.276 176.644C584.792 171.245 589.058 174.676 593.321 173.789C596.173 173.195 599.267 173.585 601.841 172.122C604.591 170.558 606.077 167.266 607.334 164.166C610.306 156.835 613.061 148.782 611.381 140.979Z" fill="black"/>
<path d="M598.637 169.901C600.11 170.617 601.353 171.839 602.153 173.729C603.034 175.814 603.03 178.102 602.602 180.195C601.674 184.736 598.763 188.531 594.792 190.661C591.482 192.437 585.87 193.935 582.588 190.33C581.135 188.735 580.866 186.456 580.981 184.423C581.23 180.021 582.279 174.711 585.753 172.092C588.826 169.78 594.598 167.939 598.637 169.901Z" fill="#D76C64"/>
<path d="M601.48 202.523C601.494 210.086 596.402 216.272 590.135 216.272C583.867 216.272 578.764 210.086 578.764 202.523C578.764 202.147 578.783 201.791 578.805 201.413C579.053 197.541 580.751 193.756 583.671 191.269C584.56 190.517 585.576 189.89 586.694 189.408C587.419 189.116 587.605 190.141 587.068 190.454C586.241 190.955 585.411 191.289 584.647 191.853C584.481 191.958 584.316 192.083 584.17 192.21C583.259 193.003 582.493 193.944 581.872 194.949C580.484 197.208 579.801 199.865 579.801 202.523C579.803 209.519 584.451 215.223 590.135 215.223C595.818 215.223 600.456 209.519 600.444 202.523C600.435 197.355 597.881 192.901 594.252 190.935C594.438 190.852 594.624 190.747 594.791 190.664C594.957 190.58 595.143 190.476 595.307 190.351C598.956 192.608 601.472 197.208 601.48 202.523Z" fill="#FFCF00"/>
<path d="M587.22 185.567C587.307 184.021 587.513 182.588 588.192 181.174C588.867 179.769 589.787 178.502 590.947 177.464C592.159 176.379 593.703 175.574 595.348 175.536C596.075 175.52 596.799 175.633 597.466 175.932C598.078 176.207 598.979 176.781 599.034 177.516C599.068 177.949 598.753 178.306 598.31 178.268C597.781 178.222 597.324 177.777 596.829 177.577C596.328 177.375 595.754 177.278 595.215 177.298C594.883 177.312 594.558 177.369 594.245 177.458C594.998 178.161 595.53 179.068 595.744 180.111C595.873 180.741 595.881 181.418 595.772 182.051C595.71 182.399 595.605 182.746 595.469 183.073C595.407 183.221 595.336 183.365 595.259 183.504C595.132 183.732 594.972 183.843 594.752 183.967C594.441 184.145 593.954 183.87 593.94 183.512C593.933 183.338 593.919 183.173 593.972 183.003C594.016 182.865 594.081 182.732 594.131 182.593C594.208 182.374 594.259 182.152 594.305 181.924C594.406 181.402 594.426 180.889 594.334 180.364C594.18 179.47 593.717 178.605 593.064 177.965C592.507 178.284 591.993 178.686 591.533 179.119C589.799 180.754 588.445 183.284 588.13 185.674C588.049 186.264 587.186 186.155 587.22 185.567Z" fill="#E0321D"/>
<path d="M562.731 151.062C560.685 148.825 557.953 147.236 555.005 146.567C553.101 146.133 547.777 145.371 547.542 148.447C547.328 151.264 554.38 150.482 555.902 150.692C558.774 151.09 561.269 152.414 563.351 154.424C564.39 155.425 565.384 156.639 566.19 157.959C565.713 157.177 565.59 155.877 565.232 154.988C564.64 153.529 563.781 152.21 562.731 151.062Z" fill="black"/>
<path d="M522.621 144.797C524.088 143.377 526.04 142.605 528.144 142.613C529.504 142.619 533.299 142.993 533.454 145.51C533.594 147.814 528.574 145.878 527.487 145.765C525.438 145.551 523.657 146.155 522.166 147.382C521.422 147.996 520.709 148.786 520.131 149.698C520.475 149.158 520.566 148.136 520.826 147.487C521.251 146.424 521.869 145.523 522.621 144.797Z" fill="black"/>
<path d="M536.74 154.603C536.36 154.114 535.56 154.504 535.661 155.102C535.859 156.266 536.269 157.369 536.431 158.549C536.597 159.752 536.595 160.995 536.398 162.197C536.249 163.096 535.932 164.139 535.243 164.778C534.297 165.657 532.977 165.145 531.844 165.119C527.743 165.028 525.052 169.7 527.602 173.089C527.897 173.481 528.57 173.069 528.337 172.626C527.254 170.557 527.875 167.916 530.118 166.96C532.094 166.119 534.24 167.619 536.11 166.224C537.672 165.06 538.142 162.912 538.247 161.073C538.365 158.964 538.072 156.316 536.74 154.603Z" fill="#E0321D"/>
<path d="M525.001 156.728C524.261 156.649 523.503 157.863 523.089 159.601C523.056 159.593 523.022 159.589 522.99 159.579C522.955 159.569 522.919 159.557 522.883 159.543C522.861 159.535 522.84 159.525 522.818 159.518C522.846 159.527 522.862 159.537 522.826 159.52C522.749 159.482 522.675 159.444 522.604 159.399C522.517 159.343 522.444 159.286 522.343 159.252C522.307 159.24 522.272 159.229 522.234 159.215C522.186 159.197 522.248 159.223 522.218 159.207C522.198 159.197 522.179 159.187 522.157 159.177C522.07 159.134 521.967 159.132 521.888 159.197C521.818 159.252 521.765 159.361 521.8 159.452C521.836 159.549 521.878 159.644 521.927 159.733C521.994 159.858 522.097 159.937 522.214 160.01C522.39 160.119 522.588 160.204 522.788 160.26C522.842 160.274 522.897 160.27 522.951 160.28C522.911 160.515 522.871 160.753 522.846 161.002C522.578 163.463 523.115 165.538 524.041 165.637C524.97 165.736 525.936 163.819 526.201 161.359C526.462 158.9 525.928 156.827 525.001 156.728Z" fill="black"/>
<path d="M557.229 166.287C556.991 166.297 556.776 166.416 556.54 166.432C556.287 166.449 556.059 166.501 555.812 166.513C555.649 166.519 555.493 166.505 555.335 166.495C555.281 164.432 554.521 162.829 553.416 162.712C552.102 162.573 550.811 164.583 550.532 167.204C550.253 169.825 551.094 172.064 552.409 172.202C553.725 172.341 555.016 170.327 555.293 167.706C555.311 167.542 555.311 167.384 555.319 167.223C555.481 167.247 555.643 167.285 555.808 167.281C556.095 167.273 556.413 167.255 556.677 167.13C556.926 167.012 557.219 166.936 557.403 166.717C557.536 166.562 557.463 166.277 557.229 166.287Z" fill="black"/>
<path d="M608.092 247.499C614.159 252.014 650.059 289.631 650.059 289.631L636.806 229.732L650.315 220.637C650.315 220.637 690.622 325.47 674.357 331.084C661.808 335.416 598.292 294.376 590.659 287.412C583.033 280.456 584.479 265.42 588.012 254.643C591.542 243.886 601.307 242.447 608.092 247.499Z" fill="#D76C64"/>
<path d="M659.281 240.24C659.309 238.007 658.327 235.312 656.439 235.427C655.483 235.485 654.536 236.225 653.679 236.605C652.719 237.031 651.721 237.377 650.712 237.664C648.74 238.224 646.721 238.519 644.672 238.563C643.625 238.587 642.577 238.549 641.536 238.44C640.447 238.327 639.38 238.016 638.286 237.961C636.193 237.854 637.668 242.237 638.436 242.995C642.451 246.962 651.486 245.577 656.187 244.019C657.021 243.744 657.862 243.407 658.497 242.803C659.01 242.316 659.268 241.334 659.281 240.24Z" fill="black"/>
<path d="M664.933 193.199C661.827 196.524 659.708 200.288 658.911 199.993C658.519 199.846 660.148 196.808 662.383 192.45C664.677 187.974 666.027 184.607 664.351 183.348C662.674 182.089 655.5 193.46 653.934 196.841C652.368 200.226 657.02 186.432 658.671 181.731C660.52 176.467 657.588 175.224 654.084 181.501C650.578 187.784 648.587 193.81 647.255 195.212C647.017 193.575 647.272 191.633 649.102 184.116C650.458 178.544 647.763 178.124 645.174 183.352C643.737 186.254 642.832 189.412 641.908 192.514C641.389 194.248 641.025 196.039 640.314 197.712C639.839 198.829 639.041 199.741 638.376 200.749C637.634 201.873 636.947 203.037 636.317 204.233C634.559 207.577 633.118 211.213 632.687 215.006C632.338 218.065 632.77 221.22 633.548 224.186C634.098 226.284 634.912 228.468 636.406 230.077C639.896 233.838 652.006 232.51 652.631 229.495C655.529 215.491 664.788 201.962 667.164 196.641C669.68 190.999 668.433 189.449 664.933 193.199Z" fill="#D76C64"/>
<path opacity="0.66" d="M648.42 186.972C648.212 187.318 648.014 187.671 647.78 188.007C645.526 191.272 642.879 194.231 640.444 197.357C640.396 197.474 640.361 197.595 640.311 197.711C639.836 198.828 639.038 199.74 638.373 200.748C637.631 201.873 636.944 203.037 636.316 204.23C636.671 206.752 638.106 208.538 639.806 210.377C642.679 213.481 643.536 217.26 643.437 221.2C644.876 217.973 644.536 214.506 644.504 211.06C644.502 210.846 644.565 210.68 644.651 210.533C645.017 207.229 646.832 204.311 647.895 201.12C648.861 198.218 648.883 195.168 648.978 192.127C648.297 193.606 647.731 194.712 647.256 195.213C647.052 193.808 647.214 192.166 648.42 186.972Z" fill="#D76C64"/>
<path d="M645.525 202.873C647.506 199.805 648.239 195.937 647.522 192.336C647.453 191.991 647.322 191.592 646.99 191.489C646.619 191.372 646.271 191.698 646.018 191.993C644.61 193.644 643.201 195.295 641.791 196.948C639.202 199.983 636.603 203.058 634.76 206.639C632.97 210.119 632.305 214.221 632.744 218.12C633.031 220.68 633.712 223.685 635.829 225.376C636.652 226.033 637.737 226.411 638.764 226.203C641.591 225.631 643.032 221.818 643.331 219.282C643.68 216.317 642.961 213.227 641.52 210.63C641.271 210.18 640.993 209.697 641.057 209.188C641.092 208.901 641.235 208.64 641.383 208.393C642.569 206.417 644.276 204.809 645.525 202.873Z" fill="#D76C64"/>
<path d="M231.543 561.33H106.195V573.222H231.543V561.33Z" fill="#263238"/>
<path d="M146.147 302.714H133.988L79.4336 754.251H91.5924L146.147 302.714Z" fill="#263238"/>
<path d="M383.35 752.861H201.7C195.415 752.861 190.107 748.24 189.313 742.074L104.679 84.4463C103.721 76.999 109.592 70.6642 117.18 70.9513L300.53 77.8582C306.743 78.0918 311.981 82.8785 312.764 89.0331L395.473 739.12C396.399 746.411 390.712 752.861 383.35 752.861Z" fill="#263238"/>
<path d="M393.201 752.866H211.753C205.476 752.866 200.175 748.248 199.381 742.085L114.839 84.826C113.881 77.3846 119.747 71.0518 127.327 71.3369L310.473 78.2359C316.677 78.4695 321.911 83.2542 322.693 89.4029L405.309 739.13C406.235 746.419 400.554 752.866 393.201 752.866Z" fill="#525557"/>
<path d="M383.095 741.588L220.093 741.485C213.321 741.481 207.606 736.491 206.78 729.849L201.172 685.444L188.55 585.46L185.458 561.051L178.266 504.014L168.057 423.186L156.197 329.299L126.93 97.6182C125.923 89.6146 132.214 82.8304 140.362 83.1333L304.805 89.2246C311.488 89.472 317.136 94.6369 317.974 101.269L327.242 175.346L338.471 265.256L346.435 329.026L353.9 388.68L356.358 408.424L368.511 505.723L396.153 726.836C397.127 734.666 391.018 741.594 383.095 741.588Z" fill="#FFE2FF"/>
<g opacity="0.7">
<mask id="mask0_6_471" style="mask-type:luminance" maskUnits="userSpaceOnUse" x="126" y="81" width="271" height="661">
<path d="M382.74 741.394H218.887C212.155 741.394 206.475 736.382 205.642 729.701L126.574 96.7906C125.578 88.8227 131.79 81.7871 139.819 81.7871H303.672C310.405 81.7871 316.085 86.8015 316.918 93.4807L395.986 726.391C396.982 734.359 390.77 741.394 382.74 741.394Z" fill="white"/>
</mask>
<g mask="url(#mask0_6_471)">
<path d="M125.047 196.651C128.058 202.932 134.864 206.486 141.607 208.069C144.683 208.792 148.773 208.594 150.355 206.179C149.476 208.782 150.044 211.876 151.897 213.907C154.049 216.265 157.755 217.005 160.637 215.651C160.461 216.912 161.207 218.249 162.369 218.743C163.074 218.446 163.369 217.443 162.941 216.805C166.033 221.798 172.479 224.395 178.123 222.924C180.878 222.206 183.783 219.622 182.791 216.924C183.242 220.947 188.589 223.417 191.891 221.127C191.859 222.637 193.237 224.029 194.73 223.997C196.224 223.966 197.537 222.515 197.436 221.008C202.52 225.328 210.288 226.07 216.066 222.79C217.994 221.695 219.806 220.012 220.152 217.803C220.299 216.861 220.035 215.867 219.533 215.051C222.799 215.093 226.135 215.044 229.144 213.8C232.355 212.472 235.124 209.417 235.021 205.91C234.944 203.292 233.348 200.98 232.703 198.442C232.058 195.907 233.061 192.458 235.643 192.254C237.03 192.145 238.274 193.038 239.475 193.753C245.125 197.116 252.642 196.958 258.109 193.359C260.279 191.929 262.245 189.738 262.278 187.117C262.294 185.795 261.574 184.49 260.56 183.667C262.957 183.748 265.377 183.168 267.431 181.932C271.062 179.749 273.412 174.679 271.072 171.104C269.718 169.035 267.342 168.142 264.852 167.671C264.979 167.592 265.082 167.489 265.204 167.404C265.911 167.145 266.57 166.675 267.176 166.175C268.597 164.999 269.989 163.68 270.959 162.093C272.776 159.119 272.759 155.297 271.482 152.102C270.141 148.748 267.509 146.147 264.531 144.219C264.456 144.169 264.371 144.114 264.288 144.06C264.674 143.68 265.056 143.294 265.42 142.892C266.867 141.295 268.199 139.347 268.099 137.183C267.906 133.137 263.314 131.294 259.137 130.692C261.037 130.577 262.872 129.094 263.104 127.162C263.393 124.747 261.097 122.36 258.681 122.56C264.359 119.064 267.14 111.48 265.09 105.101C263.041 98.729 256.363 94.164 249.712 94.5837C247.77 94.7064 245.804 95.235 244.278 96.4366C243.046 97.4066 242.084 98.7884 241.178 100.212C240.718 100.196 240.263 100.097 239.818 99.9583C238.44 98.0084 237.622 95.52 236.912 93.3504C235.7 89.6564 234.073 86.1089 230.3 84.4856C227.473 83.2702 224.161 83.3355 221.516 84.8657C219.643 85.3171 217.852 86.2594 216.345 87.4333C215.411 88.1618 214.57 88.9992 213.817 89.9078C212.986 87.9163 211.719 86.1327 209.967 84.8934C207.158 82.9079 202.983 82.6961 200.413 84.9766C195.765 78.0717 187.625 73.1503 179.386 73.9145C179.342 73.8571 179.287 73.8036 179.194 73.7858C175.547 73.0791 171.863 73.5186 168.567 75.2765C162.866 78.3191 159.566 84.7628 160.203 91.1787C160.356 92.7209 160.754 94.2273 161.348 95.6507C159.287 97.3274 158.055 99.9821 157.772 102.593C157.717 103.102 157.701 103.613 157.703 104.123C157.41 104.011 157.115 103.904 156.816 103.815C153.841 102.924 150.169 102.853 147.183 103.726C144.63 104.472 142.272 106.392 141.625 109.067C141.369 110.118 141.427 111.222 141.668 112.278C141.864 114.996 143.414 117.947 144.988 120.323C142.472 119.091 139.485 117.939 136.969 119.182C134.45 120.426 134.33 125.195 137.123 125.426C131.948 126.37 127.203 129.54 124.327 133.974C122.727 136.441 121.696 139.626 122.884 142.308C123.826 144.436 125.79 145.602 128.019 146.428C128.939 147.463 130.293 148.051 131.065 149.288C132.073 150.902 131.529 152.632 130.469 154.063C129.454 155.439 128.124 156.568 126.886 157.735C125.78 158.781 124.469 159.82 123.749 161.196C122.454 163.664 123.856 167.25 125.421 169.277C126.035 170.071 126.795 170.738 127.643 171.211C127.886 171.605 128.171 171.975 128.514 172.313C126.904 173.248 126.15 175.443 126.843 177.173C127.536 178.906 129.589 179.951 131.388 179.488C124.691 181.243 122.038 190.375 125.047 196.651ZM269.134 162.681C270.25 160.256 270.609 157.47 270.007 154.796C269.407 152.135 267.906 149.477 265.543 148.023C265.466 147.976 265.382 147.94 265.303 147.897C265.246 147.406 265.127 146.923 265.006 146.442C267.055 147.978 268.91 149.888 269.979 152.242C271.151 154.823 271.537 157.888 270.427 160.547C270.102 161.323 269.647 162.023 269.134 162.681ZM226.135 84.9053C228.526 84.8954 230.929 85.7922 232.612 87.5184C235.387 90.371 236.13 95.3537 238.163 99.022C236.393 97.6798 235.302 95.6052 234.354 93.6434C232.762 90.3552 230.769 86.9087 227.304 85.3171C226.918 85.1389 226.527 85.0162 226.135 84.9053ZM161.793 86.2237C163.337 79.1545 169.931 74.249 177.006 74.3064C169.325 76.2267 163.036 83.9987 164.481 91.7984C164.616 92.5249 164.808 93.2672 165.022 94.0135C164.119 94.164 163.25 94.4629 162.486 94.8846C161.395 92.1527 161.158 89.1278 161.793 86.2237ZM144.689 106.614C145.629 105.804 146.807 105.236 147.989 104.917C150.606 104.211 153.623 104.329 156.244 104.935C156.763 105.056 157.27 105.216 157.762 105.404C157.834 106.178 157.956 106.946 158.133 107.707C156.818 107.526 155.5 107.218 154.282 106.861C151.156 105.945 147.397 105.228 144.689 106.614ZM134.551 150.991C133.16 154.73 130.238 157.674 128.31 161.17C126.946 163.643 126.229 166.778 126.904 169.399C125.885 168.321 125.134 166.911 124.768 165.472C124.251 163.441 124.588 161.92 126.146 160.505C127.379 159.383 128.636 158.284 129.856 157.146C131.703 155.421 133.688 153.157 133.298 150.429C133.164 149.488 132.667 148.503 131.986 147.628C132.364 147.729 132.744 147.829 133.11 147.932C133.657 148.087 134.239 148.283 134.567 148.746C135.017 149.383 134.825 150.26 134.551 150.991Z" fill="black"/>
<path d="M250.457 207.798C256.631 204.737 333.777 236.035 339.704 251.102C345.643 266.2 296.428 349.231 296.428 349.231L283.014 339.618C283.014 339.618 311.259 270.318 310.168 266.125C309.077 261.934 263.871 254.463 262.002 251.915C260.135 249.372 250.457 207.798 250.457 207.798Z" fill="#D76C64"/>
<path d="M297.275 326.961C299.484 330.473 301.369 334.313 302.741 338.302C298.938 345.005 296.428 349.242 296.428 349.242L283.014 339.628C283.014 339.628 286.601 330.825 291.164 319.32C293.549 321.582 295.582 324.269 297.275 326.961Z" fill="#E0321D"/>
<path d="M286.314 712.075C286.314 712.075 291.174 724.545 296.541 732.99C301.916 741.447 323.424 742.577 327.959 744.084C332.499 745.59 320.738 757.109 304.675 753.241C288.626 749.377 284.364 752.459 279.829 753.887C275.294 755.314 262.899 750.973 264.711 742.161C266.52 733.362 270.022 720.441 268.46 714.657C266.902 708.876 286.314 712.075 286.314 712.075Z" fill="black"/>
<path d="M140.431 642.053C140.431 642.053 126.886 657.656 118.582 663.193C110.271 668.734 93.9633 688.655 92.2449 693.452C90.5266 698.25 80.7631 692.282 85.4727 675.298C90.1703 658.357 101.086 649.898 100.051 645.068C99.0152 640.241 103.903 627.215 112.045 629.28C120.191 631.347 121.787 627.797 130.964 622.635C140.136 617.476 140.431 642.053 140.431 642.053Z" fill="black"/>
<path d="M120.185 633.469C120.66 642.665 125.031 653.218 130.359 654.447C138 656.185 138.412 651.559 160.546 630.825C182.623 610.169 231.636 576.118 245.923 557.507C260.154 538.944 265.883 436.745 265.883 436.745C265.883 436.745 269.249 538.832 263.508 550.783C252.111 574.56 254.657 604.909 260.15 636.611C266.061 670.613 258.545 712.995 260.214 719.632C260.758 721.786 264.61 724.742 269.593 726.971C269.839 727.064 270.108 727.179 270.377 727.293C280.77 731.631 295.358 732.547 295.364 716.803C295.378 693.05 297.193 575.682 302.987 550.636C308.74 525.703 340.473 419.876 330.336 392.864C325.957 381.181 315.025 367.525 304.072 355.794C303.955 355.654 303.817 355.513 303.678 355.374C303.654 355.355 303.654 355.355 303.656 355.376C289.51 340.3 275.423 328.511 275.423 328.511L228.761 342.978L227.019 343.526L222.245 345.005C222.245 345.005 192.503 400.583 192.681 429.27C192.879 458.055 217.493 521.369 209.652 537.292C201.815 553.247 181.344 548.619 156.941 581.395C132.406 614.299 127.031 614.552 122.02 623.051C120.589 625.464 120.045 628.879 120.142 632.578C120.142 632.869 120.166 633.18 120.185 633.469Z" fill="#CB5A90"/>
<path d="M261.108 710.141C268.971 714.301 278.501 716.629 287.404 716.389C290.015 716.318 292.911 716.003 295.368 714.879C295.366 715.57 295.364 716.223 295.364 716.805C295.358 732.549 280.768 731.634 270.375 727.295C270.106 727.18 269.836 727.065 269.591 726.972C264.608 724.741 260.758 721.788 260.214 719.634C259.824 718.084 259.938 714.566 260.263 709.676C260.544 709.833 260.827 709.993 261.108 710.141Z" fill="#CB5A90"/>
<path d="M120.185 633.472C120.164 633.183 120.142 632.872 120.142 632.581C120.045 628.881 120.589 625.467 122.02 623.053C123.911 619.846 125.857 617.813 128.862 614.757C128.937 616.596 129.123 618.427 129.363 620.207C130.656 629.879 133.775 640.019 139.58 647.973C140.077 648.654 140.611 649.321 141.167 649.972C136.567 654.436 134.543 655.4 130.361 654.448C125.031 653.221 120.66 642.668 120.185 633.472Z" fill="#CB5A90"/>
<path d="M264.99 435.966C267.995 431.419 271.537 427.299 275.484 423.601C279.245 420.076 283.4 416.805 287.975 414.463C288.302 414.295 288.569 414.841 288.274 415.043C283.994 417.959 279.77 420.887 275.931 424.415C275.478 424.831 275.05 425.274 274.609 425.702C275.866 424.892 277.163 424.146 278.537 423.566C280.607 422.693 282.923 421.98 285.174 421.877C285.57 421.859 285.758 422.507 285.337 422.613C283.181 423.154 281.051 423.619 278.97 424.433C276.86 425.258 274.849 426.28 272.968 427.563C272.875 427.626 272.786 427.622 272.707 427.592C270.086 430.328 267.657 433.26 265.42 436.338C265.202 436.639 264.792 436.265 264.99 435.966Z" fill="black"/>
<path d="M260.988 346.643C263.695 350.058 265.69 354.29 267.357 358.315C269.055 362.417 270.386 366.671 271.437 370.992C273.565 379.726 274.901 388.868 275.357 397.87C275.374 398.206 274.895 398.242 274.848 397.911C273.571 388.981 272.789 380.049 270.673 371.275C269.665 367.1 268.424 362.979 266.838 358.994C265.136 354.718 262.879 350.873 260.624 346.9C260.484 346.649 260.808 346.413 260.988 346.643Z" fill="black"/>
<path d="M263.48 338.024C269.265 345.788 273.485 354.849 276.449 364.107C279.434 373.433 281.071 383.23 281.095 393.049C281.097 393.424 280.537 393.479 280.521 393.095C280.164 383.347 278.571 373.693 275.593 364.424C272.606 355.128 268.17 346.56 262.981 338.376C262.773 338.04 263.245 337.705 263.48 338.024Z" fill="black"/>
<path d="M210.573 372.719C214.111 375.003 217.084 378.018 221.398 378.739C225.708 379.459 229.384 377.157 232.066 373.906C234.766 370.636 236.693 366.687 238.542 362.878C240.636 358.562 242.479 354.114 243.855 349.508C243.98 349.094 244.637 349.211 244.514 349.636C242.396 357.099 239.169 364.448 235.091 371.022C231.775 376.369 226.731 381.098 220.064 379.283C216.546 378.325 212.783 375.924 210.199 373.303C209.944 373.041 210.219 372.489 210.573 372.719Z" fill="black"/>
<path d="M276.544 340.567C277.631 343.913 280.044 346.809 282.483 349.232C284.991 351.716 287.844 354.042 290.882 355.84C293.68 357.507 296.976 358.617 300.216 357.863C301.679 357.509 303.031 356.82 304.077 355.788C303.96 355.648 303.821 355.507 303.683 355.369C303.659 355.349 303.659 355.349 303.661 355.371C302.273 356.578 300.392 357.226 298.524 357.289C295.333 357.396 292.304 355.725 289.75 353.931C287.24 352.156 284.856 350.135 282.73 347.923C280.511 345.589 278.793 342.982 277.029 340.314C276.837 340.05 276.457 340.274 276.544 340.567Z" fill="black"/>
<path d="M120.186 633.458C121.295 631.916 122.403 630.354 123.512 628.79C136.478 610.841 151.799 594.79 169.223 581.329C177.896 574.644 187.048 568.742 196.526 563.285C201.141 560.634 205.807 557.825 209.37 553.8C212.619 550.134 214.735 545.656 216.002 540.962C218.845 530.435 217.964 518.945 216.449 508.316C214.761 496.536 211.799 485.03 208.909 473.56C205.961 461.877 203.077 450.12 201.784 438.149C200.555 426.693 201.032 415.183 203.259 403.921C207.584 382.128 217.463 361.848 228.766 342.967L227.024 343.515C225.957 345.36 224.93 347.201 223.926 349.064C213.424 368.391 204.288 388.866 201.327 410.939C199.832 422.132 200.202 433.431 201.917 444.622C203.692 456.282 206.68 467.714 209.528 479.198C212.462 490.935 215.259 502.772 216.465 514.867C217.506 525.456 217.805 537.134 213.072 546.984C208.058 557.423 197.207 561.881 187.881 567.636C178.631 573.343 169.768 579.777 161.414 586.796C153.177 593.769 145.379 601.311 138.171 609.392C131.684 616.643 125.458 624.326 120.145 632.567C120.143 632.858 120.166 633.169 120.186 633.458Z" fill="#000052"/>
<path d="M269.596 726.968C269.841 727.061 270.11 727.176 270.38 727.291C269.768 717.818 270.591 708.243 270.52 698.798C270.443 688.532 269.936 678.291 269.281 668.08C267.998 647.744 266.308 627.433 267.103 607.138C267.893 586.837 271.979 566.949 274.2 546.914C276.37 527.159 277.312 507.341 276.956 487.594C276.586 467.731 274.97 447.962 271.898 428.475C271.85 428.174 271.389 428.212 271.435 428.513C271.765 430.92 272.078 433.351 272.389 435.762C274.782 455.477 276.194 475.35 276.188 495.331C276.21 515.434 274.885 535.57 272.264 555.606C270.932 565.681 269.253 575.729 267.982 585.849C266.751 595.713 266.08 605.635 266.011 615.612C265.878 635.945 267.761 656.266 268.897 676.662C269.475 686.984 269.817 697.339 269.621 707.708C269.481 714.104 269.216 720.558 269.596 726.968Z" fill="#000052"/>
<path d="M285.501 332.696C285.501 332.696 282.185 308.307 287.101 296.417C292.008 284.55 291.456 270.38 285.315 255.814C277.634 237.597 263.882 210.605 253.152 207.107C242.429 203.611 166.354 242.447 162.695 256.647C159.593 268.689 215.142 335.464 219.611 339.413C224.081 343.362 215.759 341.84 220.871 349.776C223.711 354.187 244.689 355.458 260.956 351.308C275.069 347.709 284.884 339.462 285.501 332.696Z" fill="#D0CFD0" fill-opacity="0.79"/>
<path d="M246.049 321.39C247.288 318.278 249.638 315.453 251.901 313.068C254.268 310.571 256.957 308.439 259.797 306.529C262.591 304.65 265.536 302.918 268.549 301.435C271.919 299.777 275.428 297.943 279.01 296.817C279.338 296.714 279.625 297.187 279.305 297.387C276.379 299.212 273.061 300.493 269.961 301.998C266.791 303.536 263.616 305.04 260.635 306.947C257.748 308.792 255.066 310.961 252.712 313.475C250.335 316.015 248.591 318.925 246.536 321.715C246.332 321.998 245.93 321.691 246.049 321.39Z" fill="black"/>
<path d="M226.807 244.092C230.939 249.54 235.029 254.986 238.754 260.732C240.764 263.83 242.706 266.972 244.58 270.153C245.475 271.672 246.36 273.194 247.235 274.724C247.831 275.768 248.165 276.656 249.581 276.318C250.4 276.122 251.216 275.773 252.016 275.465C247.789 262.997 241.716 251.305 233.702 240.847C233.391 240.441 234.045 239.986 234.354 240.394C242.423 251.01 248.882 262.928 253.105 275.583C253.188 275.835 253.067 276.124 252.81 276.215C251.846 276.557 250.883 276.908 249.915 277.24C249.393 277.421 248.864 277.676 248.306 277.529C246.934 277.171 246.221 274.811 245.61 273.717C243.598 270.13 241.456 266.614 239.253 263.142C235.197 256.749 230.961 250.375 226.322 244.375C226.485 244.282 226.645 244.187 226.807 244.092Z" fill="black"/>
<path d="M247.396 270.168C246.802 270.465 246.558 271.185 246.855 271.781C247.152 272.375 247.875 272.618 248.469 272.321C249.062 272.025 249.306 271.304 249.009 270.708C248.714 270.114 247.991 269.871 247.396 270.168Z" fill="black"/>
<path d="M243.031 264.396C243.549 264.812 244.306 264.729 244.721 264.21C245.137 263.692 245.054 262.935 244.535 262.52C244.017 262.104 243.26 262.187 242.845 262.706C242.429 263.224 242.512 263.981 243.031 264.396Z" fill="black"/>
<path d="M241.099 256.609C241.045 255.946 240.465 255.453 239.804 255.507C239.143 255.56 238.648 256.14 238.701 256.801C238.755 257.465 239.335 257.957 239.996 257.904C240.659 257.851 241.152 257.271 241.099 256.609Z" fill="black"/>
<path d="M235.003 250.396C235.522 250.811 236.278 250.728 236.694 250.21C237.11 249.691 237.027 248.935 236.508 248.519C235.989 248.103 235.233 248.186 234.817 248.705C234.402 249.222 234.485 249.98 235.003 250.396Z" fill="black"/>
<path d="M244.271 212.052C248.432 211.141 248.893 234.233 235.505 245.109C222.097 256.001 188.188 247.719 185.941 246.483C183.692 245.248 212.694 218.967 244.271 212.052Z" fill="#D76C64"/>
<path d="M203.973 233.119C203.973 233.119 206.566 240.596 220.588 240.473C234.641 240.38 232.675 232.21 232.675 232.21L232.901 225.002L233.576 204.212L204.905 205.093L204.679 212.095L203.973 233.119Z" fill="#D76C64"/>
<path d="M205.15 205.085L233.574 204.212L233.012 221.538C221.783 222.589 210.44 214.87 205.15 205.085Z" fill="#E0321D"/>
<path d="M278.012 344.225C278.503 343.023 282.967 337.615 285.481 335.382C283.884 336.757 282.601 337.708 281.152 339.131C279.539 340.715 277.098 343.862 275.957 342.568C274.819 341.273 275.423 338.157 277.175 334.75C279.248 330.72 281.774 328.304 282.852 327.14C284.001 325.901 286.63 324.587 289.017 326.448C293.309 329.795 297.312 333.832 300.2 338.497C303.405 343.678 301.55 345.606 300.085 348.742C298.244 352.679 290.704 355.57 288.829 353.432C286.956 351.296 293.038 349.706 295.083 345.064C293.562 348.495 285.426 352.81 282.66 350.916C281.203 349.918 282.599 348.443 283.401 347.76C285.796 345.723 288.793 344.294 290.298 341.2C288.477 343.061 282.987 347.639 280.376 347.82C277.921 347.994 277.452 345.598 278.012 344.225Z" fill="#D76C64"/>
<path d="M236.524 193.305C237.745 200.759 243.777 206.04 249.956 205.038C256.134 204.037 260.157 197.126 258.923 189.675C258.862 189.302 258.783 188.956 258.702 188.588C257.825 184.813 255.532 181.354 252.248 179.371C251.248 178.771 250.146 178.316 248.964 178.021C248.202 177.848 248.184 178.888 248.766 179.109C249.665 179.472 250.536 179.67 251.383 180.103C251.563 180.18 251.747 180.277 251.909 180.376C252.937 181.014 253.846 181.818 254.622 182.708C256.358 184.712 257.466 187.222 257.9 189.841C259.04 196.734 255.388 203.096 249.783 204.005C244.177 204.914 238.674 200.036 237.543 193.141C236.708 188.045 238.502 183.249 241.758 180.733C241.56 180.681 241.36 180.608 241.182 180.551C241.006 180.495 240.804 180.422 240.622 180.325C237.393 183.13 235.665 188.065 236.524 193.305Z" fill="#FFCF00"/>
<path d="M232.527 209.631C218.709 212.278 198.66 208.346 187.968 196.013C183.08 190.377 179.234 183.435 176.941 175.522C169.672 150.403 181.197 125.365 202.653 119.519C224.092 113.669 240.521 127.699 250.031 155.766C251.543 160.228 252.792 164.614 253.948 168.768C260.164 191.076 246.343 206.984 232.527 209.631Z" fill="#D76C64"/>
<path d="M222.931 181.415C225.334 179.59 228.276 181.047 233.411 180.127C238.546 179.206 241.3 177.092 242.319 177.981C244.683 180.036 242.121 187.105 235.086 188.993C228.05 190.88 220.53 183.239 222.931 181.415Z" fill="white"/>
<path d="M155.207 147.382C156.215 139.786 161.136 133.61 166.246 128.4C172.365 122.16 179.25 116.51 187.263 113.796C195.625 110.963 204.654 111.504 213.412 112.539C217.037 112.968 220.715 113.509 224.268 114.459C226.19 115.15 228.16 115.712 230.035 116.532C232.286 117.514 234.345 118.955 235.984 120.796C238.375 123.482 241.226 129.13 237.872 132.038C237.635 132.143 237.393 132.246 237.122 132.299C234.406 132.844 231.335 131.573 228.762 130.73C226.481 129.983 224.26 129.079 222.065 128.091C222.229 128.861 222.213 129.678 221.974 130.405C221.034 133.256 217.73 133.859 215.277 133.644C212.816 133.426 210.48 132.43 208.37 130.971C208.471 131.325 208.55 131.694 208.6 132.076C208.768 133.4 208.586 134.808 208.057 136.007C207.461 137.359 206.418 138.341 205.353 139.254C203.983 140.428 202.522 141.554 200.907 142.257C200.548 144.088 200.19 145.921 199.765 147.731C199.307 149.675 198.652 151.524 197.85 153.295C199.038 155.708 199.315 158.708 198.895 161.307C198.323 164.848 196.27 168.034 193.254 169.57C191.955 170.231 190.49 170.243 189.17 170.771C189.338 172.921 190.294 174.853 191.349 177.199C193.735 182.501 190.021 185.781 187.077 180.598C184.137 175.419 180.158 179.181 175.841 178.638C172.951 178.276 169.898 178.914 167.214 177.66C164.347 176.322 162.601 173.159 161.101 170.172C157.551 163.1 154.158 155.295 155.207 147.382Z" fill="black"/>
<path d="M170.232 175.185C168.821 176.017 167.679 177.335 167.035 179.283C166.325 181.433 166.511 183.714 167.105 185.764C168.395 190.217 171.598 193.766 175.728 195.572C179.17 197.076 184.884 198.119 187.867 194.263C189.187 192.557 189.274 190.264 188.995 188.247C188.393 183.88 186.921 178.67 183.248 176.34C180.004 174.279 174.103 172.907 170.232 175.185Z" fill="#D76C64"/>
<path d="M170.019 207.934C170.611 215.472 176.183 221.231 182.429 220.728C188.675 220.225 193.267 213.651 192.662 206.112C192.632 205.736 192.582 205.384 192.531 205.01C191.973 201.171 189.977 197.533 186.867 195.288C185.919 194.609 184.858 194.066 183.706 193.676C182.959 193.443 182.857 194.478 183.417 194.747C184.282 195.181 185.135 195.448 185.943 195.949C186.115 196.04 186.291 196.151 186.446 196.266C187.418 196.984 188.257 197.861 188.956 198.812C190.52 200.951 191.414 203.545 191.626 206.196C192.186 213.17 188.009 219.227 182.344 219.683C176.678 220.138 171.598 214.827 171.05 207.85C170.644 202.698 172.834 198.051 176.292 195.803C176.1 195.733 175.906 195.646 175.734 195.575C175.562 195.506 175.368 195.416 175.193 195.304C171.739 197.847 169.601 202.634 170.019 207.934Z" fill="#FFCF00"/>
<path d="M182.873 189.881C182.661 188.346 182.343 186.935 181.551 185.579C180.767 184.233 179.746 183.043 178.508 182.103C177.214 181.119 175.61 180.44 173.967 180.533C173.24 180.575 172.53 180.745 171.886 181.099C171.298 181.422 170.447 182.067 170.449 182.804C170.451 183.237 170.794 183.568 171.233 183.494C171.758 183.407 172.177 182.926 172.653 182.687C173.136 182.445 173.7 182.303 174.238 182.279C174.571 182.265 174.897 182.297 175.218 182.36C174.525 183.122 174.066 184.067 173.937 185.126C173.86 185.763 173.906 186.438 174.066 187.062C174.155 187.404 174.286 187.741 174.45 188.055C174.523 188.198 174.604 188.337 174.694 188.469C174.838 188.685 175.006 188.782 175.236 188.891C175.559 189.043 176.022 188.731 176.008 188.372C176 188.198 176.002 188.034 175.935 187.867C175.879 187.733 175.804 187.606 175.745 187.472C175.65 187.258 175.58 187.042 175.517 186.818C175.375 186.306 175.315 185.795 175.363 185.266C175.446 184.362 175.836 183.461 176.438 182.774C177.018 183.047 177.564 183.405 178.057 183.801C179.916 185.292 181.47 187.705 181.975 190.063C182.103 190.643 182.952 190.465 182.873 189.881Z" fill="#E0321D"/>
<path d="M204.508 153.524C206.368 151.128 208.964 149.325 211.848 148.422C213.713 147.838 218.957 146.65 219.438 149.699C219.877 152.488 212.786 152.277 211.284 152.607C208.453 153.233 206.073 154.755 204.157 156.923C203.201 158.006 202.31 159.294 201.611 160.674C202.025 159.855 202.041 158.55 202.33 157.635C202.803 156.135 203.555 154.751 204.508 153.524Z" fill="black"/>
<path d="M243.988 144.059C242.412 142.762 240.403 142.148 238.308 142.327C236.954 142.441 233.199 143.118 233.249 145.64C233.292 147.949 238.142 145.617 239.217 145.417C241.242 145.041 243.065 145.498 244.651 146.603C245.441 147.153 246.215 147.885 246.866 148.747C246.48 148.236 246.308 147.224 245.997 146.599C245.483 145.573 244.796 144.724 243.988 144.059Z" fill="black"/>
<path d="M230.7 154.985C231.04 154.467 231.868 154.791 231.814 155.395C231.709 156.571 231.391 157.703 231.323 158.893C231.254 160.107 231.355 161.344 231.65 162.528C231.872 163.413 232.269 164.426 233.008 165.008C234.021 165.808 235.296 165.19 236.423 165.076C240.503 164.656 243.559 169.096 241.291 172.679C241.027 173.093 240.325 172.737 240.521 172.275C241.435 170.126 240.602 167.544 238.29 166.772C236.252 166.091 234.233 167.76 232.256 166.519C230.607 165.483 229.965 163.381 229.714 161.556C229.429 159.461 229.51 156.799 230.7 154.985Z" fill="#E0321D"/>
<path d="M242.574 156.156C243.304 156.019 244.157 157.166 244.712 158.866C244.743 158.856 244.777 158.848 244.809 158.836C244.844 158.823 244.878 158.809 244.914 158.793C244.935 158.783 244.955 158.773 244.977 158.763C244.951 158.775 244.935 158.787 244.969 158.767C245.042 158.724 245.114 158.68 245.181 158.629C245.264 158.565 245.331 158.502 245.43 158.46C245.466 158.446 245.5 158.431 245.535 158.415C245.583 158.393 245.521 158.425 245.551 158.407C245.571 158.395 245.589 158.385 245.609 158.373C245.692 158.322 245.795 158.314 245.878 158.371C245.953 158.421 246.012 158.526 245.987 158.619C245.959 158.718 245.925 158.817 245.884 158.91C245.826 159.038 245.731 159.127 245.62 159.209C245.454 159.331 245.264 159.432 245.07 159.504C245.019 159.521 244.961 159.521 244.91 159.537C244.969 159.769 245.027 160.002 245.074 160.248C245.537 162.679 245.169 164.791 244.252 164.963C243.336 165.136 242.217 163.304 241.756 160.872C241.291 158.437 241.659 156.328 242.574 156.156Z" fill="black"/>
<path d="M211.212 168.262C211.45 168.252 211.674 168.353 211.911 168.351C212.165 168.349 212.396 168.382 212.644 168.373C212.806 168.367 212.961 168.339 213.117 168.317C213.004 166.258 213.634 164.597 214.726 164.394C216.025 164.15 217.474 166.05 217.961 168.64C218.448 171.229 217.791 173.529 216.49 173.773C215.19 174.016 213.74 172.114 213.253 169.523C213.224 169.36 213.21 169.202 213.188 169.044C213.028 169.079 212.869 169.131 212.705 169.141C212.418 169.157 212.099 169.162 211.828 169.06C211.571 168.963 211.272 168.909 211.072 168.705C210.929 168.561 210.979 168.272 211.212 168.262Z" fill="black"/>
<path d="M167.034 253.314C161.348 258.303 128.58 298.675 128.58 298.675L136.987 237.907L122.791 229.927C122.791 229.927 91.0222 337.654 107.685 341.946C120.54 345.256 180.56 299.255 187.612 291.703C194.653 284.157 192.008 269.286 187.622 258.828C183.243 248.385 173.392 247.736 167.034 253.314Z" fill="#D76C64"/>
<path d="M116.41 252.672C117.093 253.222 117.958 253.489 118.811 253.697C123.621 254.873 132.741 255.53 136.424 251.254C137.128 250.435 138.247 245.951 136.17 246.224C135.085 246.367 134.046 246.76 132.969 246.962C131.94 247.154 130.898 247.275 129.853 247.337C127.808 247.455 125.771 247.325 123.76 246.925C122.731 246.721 121.709 246.456 120.719 246.107C119.834 245.796 118.831 245.135 117.873 245.155C115.98 245.193 115.216 247.958 115.424 250.181C115.527 251.268 115.861 252.228 116.41 252.672Z" fill="black"/>
<path d="M106.026 203.758C109.389 206.824 111.803 210.403 112.573 210.045C112.953 209.869 111.084 206.968 108.508 202.805C105.862 198.527 104.246 195.279 105.818 193.889C107.388 192.499 115.451 203.259 117.284 206.503C119.115 209.752 113.372 196.374 111.351 191.82C109.086 186.721 111.909 185.246 115.904 191.223C119.903 197.205 122.372 203.051 123.811 204.342C123.916 202.691 123.506 200.774 121.081 193.43C119.283 187.984 121.934 187.348 124.935 192.353C126.6 195.132 127.754 198.205 128.926 201.222C129.581 202.91 130.088 204.666 130.932 206.276C131.496 207.351 132.363 208.198 133.107 209.148C133.939 210.209 134.717 211.314 135.439 212.456C137.46 215.649 139.189 219.157 139.921 222.904C140.513 225.925 140.337 229.105 139.798 232.123C139.418 234.259 138.783 236.5 137.421 238.227C134.243 242.255 122.067 241.903 121.202 238.947C117.189 225.221 106.877 212.478 104.08 207.366C101.118 201.946 102.235 200.301 106.026 203.758Z" fill="#D76C64"/>
<path opacity="0.66" d="M121.986 196.22C122.22 196.549 122.446 196.884 122.707 197.2C125.217 200.273 128.091 203.011 130.77 205.93C130.825 206.043 130.873 206.162 130.93 206.273C131.494 207.348 132.361 208.195 133.106 209.145C133.937 210.206 134.715 211.311 135.436 212.451C135.283 214.995 133.999 216.89 132.451 218.857C129.835 222.181 129.283 226.018 129.699 229.935C128.006 226.835 128.068 223.351 127.822 219.913C127.806 219.701 127.731 219.538 127.634 219.4C127.003 216.135 124.96 213.374 123.645 210.278C122.45 207.463 122.184 204.424 121.844 201.401C122.642 202.821 123.295 203.88 123.808 204.339C123.899 202.925 123.606 201.302 121.986 196.22Z" fill="#D76C64"/>
<path d="M126.145 211.829C123.923 208.929 122.884 205.132 123.308 201.486C123.349 201.138 123.446 200.73 123.771 200.599C124.131 200.455 124.503 200.752 124.779 201.025C126.315 202.557 127.851 204.091 129.389 205.625C132.214 208.444 135.051 211.299 137.175 214.72C139.24 218.045 140.23 222.08 140.105 226.004C140.024 228.579 139.586 231.63 137.61 233.483C136.842 234.205 135.791 234.668 134.752 234.544C131.887 234.201 130.145 230.515 129.644 228.013C129.059 225.085 129.528 221.947 130.755 219.243C130.967 218.776 131.206 218.273 131.101 217.77C131.042 217.487 130.88 217.238 130.712 217.002C129.373 215.124 127.544 213.657 126.145 211.829Z" fill="#D76C64"/>
</g>
</g>
<g opacity="0.49">
<path d="M337.592 258.883C280.464 313.007 221.129 364.99 167.222 422.033L155.484 328.094C194.695 288.322 235.071 249.675 276.508 212.171C292.935 197.301 309.515 182.624 326.266 168.163L337.592 258.883Z" fill="#FFE2FF"/>
<path d="M353.178 383.607C336.167 402.586 319.09 421.499 301.604 440.044C263.237 480.701 222.796 519.544 184.472 560.203L177.34 503.01C230.231 440.369 287.664 381.489 345.635 323.302L353.178 383.607Z" fill="#FFE2FF"/>
<path d="M367.96 502.073C308.43 559.678 252.34 620.826 200.074 685.088L187.537 584.686C203.857 565.557 220.262 546.513 237.036 527.796C275.23 485.127 315.175 444.08 355.66 403.573L367.96 502.073Z" fill="#FFE2FF"/>
</g>
<path d="M446.424 161.435C444.45 157.951 442.934 144.157 442.934 144.157C442.934 144.157 441.063 157.272 438.866 161.433C436.67 165.594 427.887 166.978 427.887 166.978C427.887 166.978 436.104 167.299 438.503 171.107C440.903 174.916 442.908 190.921 442.908 190.921C442.908 190.921 444.124 175.074 446.458 171.228C448.791 167.38 457.817 166.477 457.817 166.477C457.817 166.477 448.396 164.921 446.424 161.435Z" fill="#FFCF00"/>
<path d="M463.885 194.199C462.668 192.049 461.734 183.541 461.734 183.541C461.734 183.541 460.579 191.629 459.223 194.197C457.869 196.764 452.451 197.618 452.451 197.618C452.451 197.618 457.519 197.816 459 200.165C460.48 202.515 461.716 212.388 461.716 212.388C461.716 212.388 462.466 202.612 463.905 200.239C465.344 197.865 470.913 197.309 470.913 197.309C470.913 197.309 465.103 196.349 463.885 194.199Z" fill="#FFCF00"/>
<path d="M469.451 152.411C468.722 151.124 468.162 146.031 468.162 146.031C468.162 146.031 467.471 150.873 466.66 152.409C465.848 153.945 462.605 154.456 462.605 154.456C462.605 154.456 465.64 154.575 466.525 155.98C467.412 157.386 468.15 163.297 468.15 163.297C468.15 163.297 468.6 157.445 469.461 156.026C470.322 154.605 473.656 154.272 473.656 154.272C473.656 154.272 470.179 153.698 469.451 152.411Z" fill="#FFCF00"/>
<path d="M625.725 159.473C624.792 157.826 624.076 151.309 624.076 151.309C624.076 151.309 623.191 157.505 622.153 159.473C621.116 161.438 616.965 162.094 616.965 162.094C616.965 162.094 620.847 162.244 621.981 164.045C623.116 165.845 624.062 173.409 624.062 173.409C624.062 173.409 624.636 165.922 625.739 164.103C626.841 162.284 631.105 161.858 631.105 161.858C631.105 161.858 626.657 161.12 625.725 159.473Z" fill="#FFCF00"/>
<path d="M609.729 131.407C607.801 128.002 606.32 114.529 606.32 114.529C606.32 114.529 604.491 127.341 602.345 131.407C600.199 135.473 591.619 136.825 591.619 136.825C591.619 136.825 599.647 137.138 601.99 140.86C604.334 144.581 606.292 160.216 606.292 160.216C606.292 160.216 607.48 144.736 609.76 140.977C612.041 137.217 620.858 136.336 620.858 136.336C620.858 136.336 611.657 134.812 609.729 131.407Z" fill="#FFCF00"/>
</svg>
